<?xml version="1.0" encoding="UTF-8" standalone="no"?>
<!-- Created with Inkscape (http://www.inkscape.org/) -->

<svg
   version="1.1"
   id="svg2617"
   width="800"
   height="800"
   viewBox="0 0 800 800"
   sodipodi:docname="elephant-color-silhouette-3-publicdomainvectors.org.svg"
   inkscape:version="1.2 (dc2aedaf03, 2022-05-15)"
   xmlns:inkscape="http://www.inkscape.org/namespaces/inkscape"
   xmlns:sodipodi="http://sodipodi.sourceforge.net/DTD/sodipodi-0.dtd"
   xmlns="http://www.w3.org/2000/svg"
   xmlns:svg="http://www.w3.org/2000/svg">
  <defs
     id="defs2621">
    <clipPath
       clipPathUnits="userSpaceOnUse"
       id="clipPath2633">
      <path
         d="M 0,600 H 600 V 0 H 0 Z"
         id="path2631" />
    </clipPath>
  </defs>
  <sodipodi:namedview
     id="namedview2619"
     pagecolor="#ffffff"
     bordercolor="#000000"
     borderopacity="0.25"
     inkscape:showpageshadow="2"
     inkscape:pageopacity="0.0"
     inkscape:pagecheckerboard="0"
     inkscape:deskcolor="#d1d1d1"
     showgrid="false"
     inkscape:zoom="1.04625"
     inkscape:cx="400"
     inkscape:cy="400.4779"
     inkscape:window-width="1920"
     inkscape:window-height="1017"
     inkscape:window-x="-8"
     inkscape:window-y="-8"
     inkscape:window-maximized="1"
     inkscape:current-layer="g2625">
    <inkscape:page
       x="0"
       y="0"
       id="page2623"
       width="800"
       height="800" />
  </sodipodi:namedview>
  <g
     id="g2625"
     inkscape:groupmode="layer"
     inkscape:label="Page 1"
     transform="matrix(1.3333333,0,0,-1.3333333,0,800)">
    <g
       id="g2627">
      <g
         id="g2629"
         clip-path="url(#clipPath2633)">
        <g
           id="g2635"
           transform="translate(419.6504,114.9209)">
          <path
             d="m 0,0 c 0.624,-0.623 1.132,-1.36 1.132,-1.638 0,-0.214 0.098,-0.423 0.27,-0.623 l 40.715,-1.961 c 0.579,0.076 1.168,0.131 1.747,0.161 0.9,0.043 2.072,0.266 2.609,0.492 0.535,0.227 1.2,0.413 1.477,0.413 0.278,0 0.859,0.217 1.29,0.482 0.43,0.264 1.575,0.645 2.542,0.844 0.969,0.201 2.336,0.706 3.042,1.124 0.705,0.418 1.553,0.844 1.886,0.947 0.331,0.103 1.063,0.61 1.627,1.123 0.563,0.517 1.128,0.982 1.257,1.037 0.491,0.208 1.076,1.088 1.518,2.138 L -0.365,0.362 C -0.256,0.255 -0.137,0.137 0,0"
             style="fill:#0a5445;fill-opacity:1;fill-rule:nonzero;stroke:none"
             id="path2637" />
        </g>
        <g
           id="g2639"
           transform="translate(388.3564,111.7402)">
          <path
             d="M 0,0 C 1.44,-0.134 1.678,-0.092 2.011,0.35 2.062,0.418 2.157,0.531 2.284,0.677 L -0.778,0.054 C -0.554,0.046 -0.3,0.027 0,0"
             style="fill:#24604e;fill-opacity:1;fill-rule:nonzero;stroke:none"
             id="path2641" />
        </g>
        <g
           id="g2643"
           transform="translate(364.6084,106.8447)">
          <path
             d="M 0,0 C 0.402,0.265 1.075,0.465 1.494,0.448 1.913,0.432 2.898,0.539 3.685,0.689 4.764,0.894 5.534,0.881 6.809,0.642 8.463,0.329 8.511,0.335 8.977,0.91 9.38,1.408 9.53,1.452 9.936,1.199 c 0.265,-0.166 0.706,-0.301 0.979,-0.301 0.274,0 0.618,-0.225 0.768,-0.502 0.363,-0.681 0.636,-0.638 1.812,0.293 0.701,0.556 1.434,0.863 2.424,1.017 1.02,0.157 1.911,0.541 3.178,1.37 0.968,0.631 2.043,1.334 2.388,1.56 0.008,0.005 0.016,0.009 0.024,0.015 L -5.565,-0.862 C -3.986,-1.412 -1.63,-1.068 0,0"
             style="fill:#24604e;fill-opacity:1;fill-rule:nonzero;stroke:none"
             id="path2645" />
        </g>
        <g
           id="g2647"
           transform="translate(424.3018,111.4629)">
          <path
             d="M 0,0 C 1.438,-0.066 1.629,-0.021 1.597,0.374 1.572,0.677 1.695,0.784 1.975,0.707 2.202,0.645 2.642,0.52 2.954,0.431 3.264,0.342 3.518,0.076 3.518,-0.158 c 0,-0.446 1.24,-1.115 3.787,-2.045 1.737,-0.636 4.095,-0.679 7.148,-0.129 2.722,0.488 2.295,0.478 4.915,0.102 1.91,-0.278 2.307,-0.262 3.562,0.132 0.957,0.301 1.765,0.394 2.503,0.284 1.672,-0.247 3.014,-0.163 3.822,0.24 0.945,0.472 1.512,0.464 2.574,-0.041 0.787,-0.373 0.953,-0.375 1.923,-0.014 1.024,0.381 2.343,0.685 3.714,0.865 L -3.249,1.197 C -2.708,0.572 -1.42,0.065 0,0"
             style="fill:#24604e;fill-opacity:1;fill-rule:nonzero;stroke:none"
             id="path2649" />
        </g>
        <g
           id="g2651"
           transform="translate(560.0488,369.9116)">
          <path
             d="m 0,0 c -0.16,0.483 -0.26,0.848 -0.26,0.979 0,0.658 -0.897,3.405 -1.342,4.107 -0.202,0.318 -0.438,0.921 -0.524,1.337 -0.088,0.417 -0.545,1.182 -1.02,1.7 -0.931,1.017 -1.192,1.515 -2.385,4.581 -0.43,1.106 -1.157,2.633 -1.615,3.394 -0.457,0.759 -1.004,1.721 -1.214,2.136 -1.443,2.833 -2.561,4.848 -2.926,5.279 -0.235,0.276 -0.695,1.011 -1.023,1.634 -0.325,0.622 -0.746,1.31 -0.933,1.527 -0.187,0.219 -0.339,0.534 -0.339,0.702 0,0.396 -0.827,2.01 -1.651,3.224 -0.359,0.526 -0.882,1.494 -1.164,2.151 -0.285,0.656 -0.605,1.194 -0.714,1.194 -0.298,0 -1.888,1.808 -4.515,5.129 -0.623,0.787 -1.611,1.994 -2.199,2.683 -0.589,0.69 -1.069,1.391 -1.069,1.559 0,0.168 -0.538,0.896 -1.195,1.617 -2.255,2.475 -3.205,3.624 -3.554,4.298 -0.193,0.372 -0.673,1.047 -1.069,1.501 -0.394,0.455 -0.719,0.911 -0.719,1.014 0,0.103 -0.988,1.214 -2.198,2.468 -3.012,3.123 -4.461,4.654 -5.29,5.639 L -61.837,12.732 Z"
             style="fill:#be6e00;fill-opacity:1;fill-rule:nonzero;stroke:none"
             id="path2653" />
        </g>
        <g
           id="g2655"
           transform="translate(566.2627,309.6299)">
          <path
             d="m 0,0 c 0.172,0.173 0.314,0.696 0.314,1.161 0,0.465 0.116,1.063 0.258,1.328 0.142,0.265 0.317,1.982 0.388,3.817 0.071,1.834 0.294,4.421 0.495,5.749 0.265,1.741 0.298,2.755 0.125,3.644 -0.134,0.677 -0.169,2.589 -0.082,4.247 0.424,8.008 0.003,13.367 -1.552,19.733 -0.32,1.314 -0.647,2.908 -0.725,3.545 -0.037,0.294 -0.155,0.83 -0.317,1.466 l -16.008,-8.903 c 0.046,-0.12 0.074,-0.243 0.074,-0.361 0,-0.338 0.112,-0.96 0.25,-1.385 0.138,-0.425 0.364,-1.235 0.502,-1.801 0.138,-0.566 0.589,-1.527 1.001,-2.137 0.413,-0.608 0.752,-1.4 0.756,-1.76 0.002,-0.359 0.234,-0.86 0.516,-1.115 0.369,-0.335 0.472,-0.65 0.365,-1.129 -0.103,-0.476 0.108,-1.143 0.745,-2.344 0.492,-0.924 0.892,-1.881 0.892,-2.128 0,-0.247 0.105,-0.556 0.233,-0.688 0.223,-0.226 0.513,-4.964 0.679,-11.047 0.041,-1.521 0.089,-3.161 0.106,-3.645 0.013,-0.4 -0.031,-1.759 -0.095,-3.215 L -0.156,-0.235 C -0.107,-0.137 -0.056,-0.054 0,0"
             style="fill:#b59d31;fill-opacity:1;fill-rule:nonzero;stroke:none"
             id="path2657" />
        </g>
        <g
           id="g2659"
           transform="translate(538.0693,317.7812)">
          <path
             d="m 0,0 c 0.062,0.128 0.103,0.236 0.103,0.31 0,0.638 0.832,3.065 1.051,3.065 0.113,0 0.204,0.175 0.204,0.39 0,0.374 0.496,1.478 1.516,3.38 0.259,0.484 0.477,1.402 0.484,2.04 0.007,0.731 0.185,1.382 0.478,1.759 0.255,0.33 0.539,0.911 0.628,1.291 0.089,0.38 0.235,1.002 0.321,1.382 0.087,0.381 0.299,0.862 0.47,1.069 0.172,0.207 0.371,0.66 0.445,1.005 0.178,0.839 0.637,2.092 1.383,3.771 0.338,0.761 0.741,2.005 0.896,2.765 0.156,0.76 0.435,1.539 0.618,1.731 0.183,0.19 0.311,0.7 0.282,1.131 -0.032,0.482 -0.013,0.936 0.046,1.342 L -25.098,7.507 Z"
             style="fill:#b59d31;fill-opacity:1;fill-rule:nonzero;stroke:none"
             id="path2661" />
        </g>
        <g
           id="g2663"
           transform="translate(560.4678,252.0703)">
          <path
             d="m 0,0 c -0.027,1.199 -0.135,2.263 -0.238,2.367 -0.105,0.104 -0.189,0.628 -0.189,1.165 0,0.538 -0.281,2.583 -0.623,4.547 -0.368,2.106 -0.668,4.96 -0.73,6.962 -0.059,1.865 -0.191,4.048 -0.292,4.848 -0.16,1.251 -0.121,1.502 0.274,1.791 0.424,0.308 0.435,0.448 0.131,1.715 -0.182,0.758 -0.27,1.762 -0.195,2.23 0.075,0.47 0.307,2.098 0.515,3.618 0.144,1.043 0.349,2.194 0.532,3.016 l -8.566,-5.9 c 0.024,-0.906 -0.015,-1.724 -0.137,-2.123 -0.448,-1.491 -0.288,-3.995 0.285,-4.461 0.497,-0.405 0.5,-0.441 0.073,-1.187 -0.387,-0.676 -0.398,-0.84 -0.087,-1.341 0.368,-0.59 0.647,-2.526 0.557,-3.841 -0.155,-2.229 -0.04,-3.257 0.436,-3.901 0.405,-0.549 0.508,-1.146 0.564,-3.286 0.048,-1.926 0.194,-2.909 0.553,-3.729 0.593,-1.347 0.982,-3.081 0.993,-4.205 l 6.179,0.557 C 0.021,-0.816 0.011,-0.44 0,0"
             style="fill:#708454;fill-opacity:1;fill-rule:nonzero;stroke:none"
             id="path2665" />
        </g>
        <g
           id="g2667"
           transform="translate(506.7061,246.0674)">
          <path
             d="m 0,0 c 0.481,0.882 1.033,2.14 1.048,2.524 l -4.06,-2.796 z"
             style="fill:#708454;fill-opacity:1;fill-rule:nonzero;stroke:none"
             id="path2669" />
        </g>
        <g
           id="g2671"
           transform="translate(499.8027,195.3721)">
          <path
             d="m 0,0 c -0.061,0.229 -0.14,0.416 -0.23,0.545 -0.067,0.094 -0.132,0.212 -0.202,0.35 L -1.168,0.45 Z"
             style="fill:#2a6850;fill-opacity:1;fill-rule:nonzero;stroke:none"
             id="path2673" />
        </g>
        <g
           id="g2675"
           transform="translate(557.2705,228.7773)">
          <path
             d="m 0,0 c 0.436,-1 0.516,-1.524 0.387,-2.559 -0.113,-0.909 -0.053,-1.515 0.199,-2.009 0.266,-0.524 0.31,-1.075 0.169,-2.093 -0.115,-0.825 -0.083,-1.89 0.08,-2.641 0.15,-0.69 0.247,-1.353 0.215,-1.473 -0.032,-0.12 -0.062,-1.421 -0.065,-2.891 -0.005,-1.576 -0.149,-3.098 -0.353,-3.705 -0.189,-0.568 -0.338,-1.484 -0.33,-2.037 0.008,-0.551 -0.098,-1.218 -0.234,-1.482 -0.134,-0.26 -0.197,-0.609 -0.139,-0.772 0.058,-0.162 -0.146,-0.841 -0.455,-1.509 -0.352,-0.76 -0.582,-1.784 -0.617,-2.741 -0.027,-0.842 -0.219,-1.859 -0.423,-2.263 -0.205,-0.402 -0.45,-1.162 -0.545,-1.689 -0.095,-0.525 -0.326,-1.015 -0.511,-1.085 -0.186,-0.072 -0.415,-0.531 -0.507,-1.023 -0.092,-0.491 -0.48,-1.189 -0.864,-1.553 -0.396,-0.377 -0.884,-1.276 -1.131,-2.092 -0.241,-0.786 -0.596,-1.562 -0.791,-1.723 -0.335,-0.277 -0.582,-0.692 -1.53,-2.565 -0.229,-0.449 -0.556,-0.987 -0.728,-1.195 -0.172,-0.207 -0.393,-0.885 -0.491,-1.508 -0.1,-0.621 -0.354,-1.506 -0.567,-1.963 -0.554,-1.192 -0.047,-3.425 0.989,-4.351 0.647,-0.579 0.737,-0.826 0.724,-2.011 -0.005,-0.609 -0.008,-1.298 -0.007,-1.7 l 4.766,-1.834 c 0,1.149 0.287,1.487 0.77,0.906 0.256,-0.308 0.262,-0.548 0.027,-1.212 l 0.671,-0.258 c 0.398,3.356 0.473,7.466 -0.155,7.87 -0.293,0.19 -0.658,1.286 -0.426,1.286 0.373,0 1.626,-0.883 1.626,-1.146 0,-0.157 0.217,-0.48 0.48,-0.719 0.363,-0.328 0.433,-0.599 0.29,-1.107 -0.223,-0.802 -0.165,-5.083 0.088,-6.329 0.034,-0.168 0.052,-0.373 0.059,-0.611 l 1.385,-0.532 c 0.118,1.283 0.296,1.16 0.727,0.035 0.047,-0.124 0.092,-0.247 0.132,-0.367 l 1.65,-0.636 c 0.181,0.96 0.56,0.871 0.659,-0.253 l 1.17,-0.45 c 0.144,0.33 0.456,0.312 0.736,-0.28 0.002,-0.002 0.002,-0.003 0.004,-0.005 l 3.951,-1.522 c 0.961,0.373 1.063,0.974 0.044,1.406 -1.041,0.444 -1.571,0.971 -1.571,1.559 0,0.291 -0.337,1.546 -0.748,2.789 -0.765,2.314 -0.956,3.543 -0.508,3.267 0.138,-0.086 0.377,-0.662 0.534,-1.279 0.295,-1.17 1.187,-2.116 1.997,-2.116 0.726,0 0.813,0.456 0.255,1.327 -0.771,1.201 -2.284,4.269 -2.284,4.628 0,0.476 0.931,0.905 1.16,0.532 0.212,-0.341 0.802,1.08 0.832,2.008 0.011,0.317 0.297,0.875 0.636,1.242 0.719,0.778 0.784,0.676 0.982,-1.539 0.163,-1.832 0.559,-2.349 0.802,-1.051 0.153,0.816 0.055,2.27 -0.324,4.794 -0.244,1.611 -0.327,7.282 -0.105,6.912 0.199,-0.33 0.577,-2.577 0.645,-3.83 0.012,-0.24 0.107,-0.438 0.21,-0.441 0.104,0 0.298,-0.003 0.428,-0.003 0.824,0 0.043,6.012 -1.159,8.925 -0.228,0.553 -0.508,1.57 -0.621,2.262 -0.114,0.692 -0.26,1.56 -0.324,1.932 -0.121,0.696 -1.143,3.25 -1.39,3.473 -0.076,0.068 -0.409,0.664 -0.741,1.324 -0.559,1.111 -1.842,2.472 -2.899,3.078 -0.566,0.325 -0.671,7.35 -0.126,8.428 0.107,0.212 0.041,1.286 -0.147,2.387 -0.188,1.1 -0.328,2.453 -0.311,3.008 C 6.405,-3.032 6.013,2.413 5.642,5.06 5.607,5.301 5.575,5.551 5.545,5.806 L -0.556,2.121 C -0.418,1.232 -0.235,0.537 0,0"
             style="fill:#2a6850;fill-opacity:1;fill-rule:nonzero;stroke:none"
             id="path2677" />
        </g>
        <g
           id="g2679"
           transform="translate(562.1563,240.7168)">
          <path
             d="M 0,0 C -0.377,1.575 -0.786,3.649 -1.004,5.091 -1.062,5.472 -1.17,6.15 -1.245,6.598 -1.504,8.165 -1.601,8.942 -1.653,10.195 L -7.832,9.639 c 0.003,-0.337 -0.026,-0.623 -0.095,-0.823 -0.179,-0.509 -0.175,-0.89 0.012,-1.24 0.149,-0.278 0.27,-1.251 0.27,-2.165 0,-1.16 0.151,-1.955 0.499,-2.638 0.274,-0.538 0.553,-1.635 0.618,-2.441 0.065,-0.805 0.183,-2.255 0.262,-3.223 0.079,-0.966 0.204,-1.929 0.281,-2.136 0.077,-0.207 0.232,-1.565 0.345,-3.017 0.051,-0.663 0.117,-1.251 0.198,-1.774 l 6.101,3.684 C 0.508,-4.907 0.397,-3.598 0.394,-2.984 0.393,-2.241 0.215,-0.897 0,0"
             style="fill:#4a8a5c;fill-opacity:1;fill-rule:nonzero;stroke:none"
             id="path2681" />
        </g>
        <g
           id="g2683"
           transform="translate(502.9219,238.1611)">
          <path
             d="m 0,0 c 0.059,0.066 0.12,0.131 0.185,0.19 0.44,0.409 0.627,0.846 0.627,1.465 0,0.626 0.147,0.962 0.503,1.153 0.277,0.147 0.504,0.462 0.504,0.7 0.001,0.236 0.227,0.77 0.502,1.184 0.275,0.415 0.5,1.06 0.5,1.433 C 2.823,6.5 2.979,6.895 3.168,7.005 3.296,7.08 3.53,7.44 3.784,7.906 L 0.772,7.634 Z"
             style="fill:#4a8a5c;fill-opacity:1;fill-rule:nonzero;stroke:none"
             id="path2685" />
        </g>
        <g
           id="g2687"
           transform="translate(499.3711,196.2666)">
          <path
             d="M 0,0 C -0.166,0.338 -0.344,0.817 -0.543,1.471 L -0.736,-0.444 Z"
             style="fill:#4a8a5c;fill-opacity:1;fill-rule:nonzero;stroke:none"
             id="path2689" />
        </g>
        <g
           id="g2691"
           transform="translate(214.5903,107.5156)">
          <path
             d="M 0,0 0.9,-0.532 C 1.466,-0.865 1.903,-1.372 2.076,-1.896 2.494,-3.164 3.06,-3.54 4.492,-3.509 5.435,-3.487 6.13,-3.678 7.335,-4.286 8.473,-4.86 9.007,-5.014 9.2,-4.82 c 0.455,0.456 0.862,0.31 1.786,-0.642 0.845,-0.869 0.947,-0.905 2.211,-0.784 0.73,0.07 1.609,0.012 1.954,-0.129 1.241,-0.51 7.702,-0.939 8.718,-0.58 0.472,0.165 0.529,0.118 0.411,-0.334 -0.147,-0.565 0.731,-0.795 1.053,-0.275 0.209,0.34 1.67,0.295 3.644,-0.108 2.259,-0.464 2.202,-0.469 2.812,0.233 0.642,0.739 2.466,0.924 2.466,0.25 0,-0.485 0.775,-0.482 2.522,0.014 1.676,0.475 4.898,1.109 6.81,1.339 0.779,0.092 1.587,0.312 1.798,0.486 0.211,0.175 1.098,0.433 1.973,0.575 0.408,0.065 0.859,0.174 1.271,0.3 L 0.072,0.694 Z"
             style="fill:#b85c00;fill-opacity:1;fill-rule:nonzero;stroke:none"
             id="path2693" />
        </g>
        <g
           id="g2695"
           transform="translate(559.8828,285.21)">
          <path
             d="m 0,0 c 0.211,0.622 0.462,2.021 0.559,3.11 0.117,1.296 0.382,2.381 0.769,3.142 0.325,0.64 0.717,1.871 0.869,2.736 0.152,0.865 0.377,1.635 0.502,1.71 0.122,0.077 0.23,0.783 0.237,1.572 0.007,0.899 0.186,1.755 0.484,2.31 1.041,1.936 1.322,2.682 1.371,3.644 0.027,0.553 0.264,1.401 0.523,1.885 0.432,0.806 0.551,1.377 0.701,3.319 0.018,0.255 0.102,0.543 0.209,0.757 L -4.7,27.452 c -0.078,-1.771 -0.185,-3.689 -0.247,-4.201 -0.034,-0.276 -0.22,-0.785 -0.412,-1.13 -0.192,-0.347 -0.434,-1.364 -0.536,-2.263 -0.102,-0.899 -0.435,-2.313 -0.743,-3.143 -0.546,-1.485 -0.604,-1.837 -0.698,-4.209 -0.035,-0.879 -0.147,-1.194 -0.429,-1.194 -0.258,0 -0.365,-0.219 -0.331,-0.692 C -8.068,10.239 -8.179,9.682 -8.343,9.38 -8.506,9.077 -8.643,8.23 -8.646,7.495 -8.648,6.72 -8.856,5.707 -9.14,5.083 -9.516,4.252 -9.571,3.857 -9.378,3.35 c 0.298,-0.782 0.373,-4.448 0.112,-5.42 -0.101,-0.378 -0.101,-0.887 0,-1.131 0.255,-0.614 0.435,-2.199 0.47,-3.579 l 8.565,5.899 C -0.146,-0.505 -0.065,-0.196 0,0"
             style="fill:#98ae4c;fill-opacity:1;fill-rule:nonzero;stroke:none"
             id="path2697" />
        </g>
        <g
           id="g2699"
           transform="translate(503.6943,245.7949)">
          <path
             d="m 0,0 4.06,2.797 c 0.002,0.005 0.002,0.013 0.002,0.017 0,0.184 0.211,0.605 0.472,0.937 0.736,0.933 1.538,2.456 1.538,2.913 0,0.832 1.181,3.844 1.506,3.844 0.075,0 0.402,0.593 0.725,1.319 0.324,0.726 0.845,1.885 1.159,2.576 0.311,0.692 0.712,1.71 0.888,2.263 0.175,0.553 0.478,1.1 0.673,1.214 0.197,0.115 0.462,0.454 0.593,0.755 0.13,0.3 0.342,0.714 0.473,0.922 0.129,0.207 0.483,1.055 0.787,1.885 0.304,0.829 0.645,1.734 0.757,2.01 0.112,0.278 0.276,0.9 0.367,1.383 0.09,0.484 0.46,1.318 0.824,1.853 0.699,1.031 1.294,2.508 1.3,3.231 0.003,0.428 0.641,1.972 1.548,3.749 0.256,0.502 0.468,1.068 0.468,1.256 0.002,0.353 0.211,0.794 1.296,2.731 0.348,0.622 0.783,1.584 0.964,2.137 0.181,0.553 0.697,1.687 1.146,2.519 0.448,0.833 0.949,2.021 1.111,2.639 0.165,0.62 0.446,1.359 0.627,1.641 0.72,1.125 1.833,4.103 2.156,5.769 0.19,0.968 0.642,2.273 1.008,2.901 0.366,0.628 0.858,1.759 1.096,2.513 0.238,0.755 0.65,1.785 0.918,2.287 0.267,0.503 0.485,1.056 0.485,1.228 0,0.171 0.396,0.863 0.879,1.537 0.486,0.673 0.882,1.355 0.882,1.513 0,0.16 0.301,0.923 0.669,1.697 0.368,0.774 0.912,2.085 1.205,2.915 0.295,0.829 0.841,1.836 1.216,2.236 0.242,0.261 0.456,0.562 0.577,0.799 L 9.277,79.494 Z"
             style="fill:#98ae4c;fill-opacity:1;fill-rule:nonzero;stroke:none"
             id="path2701" />
        </g>
        <g
           id="g2703"
           transform="translate(557.3857,168.8887)">
          <path
             d="m 0,0 c -0.155,-0.741 -0.117,-0.816 0.425,-0.814 1.14,0.008 1.307,0.326 1.412,2.677 0.032,0.727 0.064,1.29 0.103,1.706 L 0.556,4.102 C 0.572,3.21 0.387,1.828 0,0"
             style="fill:#0a634b;fill-opacity:1;fill-rule:nonzero;stroke:none"
             id="path2705" />
        </g>
        <g
           id="g2707"
           transform="translate(560.4121,171.0781)">
          <path
             d="m 0,0 c -0.247,-0.399 0.444,-1.775 0.852,-1.698 0.306,0.058 0.43,0.416 0.487,1.396 0.016,0.284 0.046,0.518 0.085,0.714 L -0.227,1.048 C -0.047,0.521 0.051,0.081 0,0"
             style="fill:#0a634b;fill-opacity:1;fill-rule:nonzero;stroke:none"
             id="path2709" />
        </g>
        <g
           id="g2711"
           transform="translate(496.8564,125.2969)">
          <path
             d="m 0,0 c 0.972,0.293 1.897,0.642 2.7,1.033 0.867,0.422 1.865,0.768 2.216,0.768 0.35,0 0.927,0.226 1.28,0.505 0.352,0.277 0.989,0.575 1.412,0.66 0.93,0.185 2.009,1.235 5.39,5.245 1.501,1.781 1.884,7.794 0.804,12.671 -0.227,1.025 -0.353,2.015 -0.28,2.204 0.072,0.187 -0.091,0.705 -0.362,1.149 -0.384,0.632 -0.46,1.087 -0.352,2.07 0.126,1.134 0.051,1.395 -0.733,2.594 -1.275,1.952 -1.608,7.891 -0.534,9.531 0.376,0.575 0.403,0.865 0.182,1.944 -0.198,0.955 -0.185,1.425 0.049,1.897 0.625,1.251 0.316,4.171 -0.703,6.654 -0.507,1.238 -0.923,2.399 -0.923,2.579 0,0.18 -0.109,0.523 -0.243,0.763 -0.133,0.241 -0.598,1.227 -1.033,2.196 -0.434,0.968 -0.973,1.967 -1.197,2.22 -0.231,0.261 -0.375,0.778 -0.332,1.188 0.077,0.74 -0.456,1.935 -1.308,2.925 -0.348,0.406 -0.432,0.77 -0.319,1.383 0.155,0.845 -0.716,3.204 -1.323,3.58 -0.154,0.095 -0.279,0.384 -0.279,0.642 0,0.258 -0.225,0.542 -0.503,0.63 -0.425,0.135 -0.501,0.381 -0.501,1.595 0,0.56 -0.059,1.065 -0.162,1.449 l -1.168,0.45 z"
             style="fill:#0a634b;fill-opacity:1;fill-rule:nonzero;stroke:none"
             id="path2713" />
        </g>
        <g
           id="g2715"
           transform="translate(549.7451,175.9268)">
          <path
             d="m 0,0 c 0.003,-0.312 -0.003,-0.933 -0.014,-1.383 -0.136,-5.64 0.203,-8.716 0.981,-8.885 1.173,-0.255 1.285,-0.33 1.285,-0.847 0,-0.303 0.166,-0.512 0.405,-0.512 0.465,0 0.403,0.729 -0.265,3.017 -0.594,2.044 -1.144,4.788 -1.144,5.719 -10e-4,0.995 0.433,1.079 0.648,0.125 0.086,-0.38 0.253,-1.087 0.372,-1.57 C 2.386,-4.82 2.563,-6 2.659,-6.958 c 0.127,-1.277 0.358,-2.018 0.858,-2.765 0.377,-0.563 0.769,-1.306 0.874,-1.652 0.277,-0.915 1.108,-2.011 1.524,-2.011 0.42,0 0.484,1.02 0.109,1.764 -0.14,0.275 -0.352,0.7 -0.471,0.947 -0.274,0.558 -1.436,4.416 -1.664,5.522 -0.124,0.606 -0.032,1.038 0.354,1.664 0.306,0.494 0.524,1.271 0.524,1.87 v 0.003 L 0,0.218 Z"
             style="fill:#0a634b;fill-opacity:1;fill-rule:nonzero;stroke:none"
             id="path2717" />
        </g>
        <g
           id="g2719"
           transform="translate(562.5186,170.7539)">
          <path
             d="m 0,0 c 0.017,-1.417 0.373,-2.682 0.756,-2.682 0.309,0 0.549,0.997 0.389,1.632 -0.12,0.478 -0.098,0.86 0,1.083 l -1.17,0.45 C -0.011,0.338 -0.001,0.18 0,0"
             style="fill:#0a634b;fill-opacity:1;fill-rule:nonzero;stroke:none"
             id="path2721" />
        </g>
        <g
           id="g2723"
           transform="translate(567.3125,168.7227)">
          <path
             d="M 0,0 C 0.418,0.061 0.765,0.15 1.043,0.258 L -2.908,1.779 C -2.22,0.329 -1.361,-0.196 0,0"
             style="fill:#0a634b;fill-opacity:1;fill-rule:nonzero;stroke:none"
             id="path2725" />
        </g>
        <g
           id="g2727"
           transform="translate(555.29,173.9531)">
          <path
             d="m 0,0 c -0.174,-0.479 -0.343,-1.427 -0.376,-2.104 -0.035,-0.678 -0.206,-1.404 -0.381,-1.614 -0.321,-0.387 -0.184,-0.907 0.239,-0.907 0.475,0 0.923,2.017 1.208,4.418 L 0.019,0.051 C 0.013,0.033 0.008,0.019 0,0"
             style="fill:#0a634b;fill-opacity:1;fill-rule:nonzero;stroke:none"
             id="path2729" />
        </g>
        <g
           id="g2731"
           transform="translate(564.4727,356.7495)">
          <path
             d="m 0,0 c -0.476,1.507 -1.01,3.419 -1.185,4.248 -0.173,0.83 -0.637,2.198 -1.027,3.042 -0.392,0.841 -0.712,1.64 -0.712,1.773 0,0.132 -0.394,1.223 -0.88,2.423 -0.241,0.599 -0.461,1.196 -0.62,1.676 l -61.837,12.732 14.76,-57.355 34.022,18.924 c 0.209,1.426 0.918,2.281 1.702,1.791 0.205,-0.129 0.373,-0.349 0.464,-0.587 L 0.694,-2.429 C 0.505,-1.689 0.257,-0.809 0,0"
             style="fill:#bca01c;fill-opacity:1;fill-rule:nonzero;stroke:none"
             id="path2733" />
        </g>
        <g
           id="g2735"
           transform="translate(420.6582,121.9121)">
          <path
             d="m 0,0 c -0.377,-0.836 -0.725,-1.787 -0.8,-2.191 -0.083,-0.436 -0.416,-1.37 -0.743,-2.074 -0.671,-1.446 -0.771,-1.427 0.17,-2.364 l 61.477,4.177 c 0.339,0.803 0.594,1.706 0.661,2.485 0.016,0.188 0.037,0.329 0.073,0.438 L 16.615,5.803 Z"
             style="fill:#196d51;fill-opacity:1;fill-rule:nonzero;stroke:none"
             id="path2737" />
        </g>
        <g
           id="g2739"
           transform="translate(503.6943,245.7949)">
          <path
             d="M 0,0 9.277,79.494 -37.321,56.3 Z"
             style="fill:#a7cb55;fill-opacity:1;fill-rule:nonzero;stroke:none"
             id="path2741" />
        </g>
        <g
           id="g2743"
           transform="translate(498.2119,382.6431)">
          <path
             d="m 0,0 22.919,47.121 c -0.441,0.525 -0.707,0.895 -0.939,1.268 -0.745,1.196 -1.93,2.534 -3.512,3.964 -1.66,1.5 -4.124,4.112 -4.89,5.183 -0.018,0.027 -0.04,0.055 -0.061,0.083 l -61.17,-16.08 z"
             style="fill:#cd6f00;fill-opacity:1;fill-rule:nonzero;stroke:none"
             id="path2745" />
        </g>
        <g
           id="g2747"
           transform="translate(511.7285,440.2617)">
          <path
             d="m 0,0 c -0.428,0.557 -1.352,1.402 -2.115,1.928 -0.803,0.554 -1.979,1.515 -2.611,2.137 -0.634,0.622 -2.248,2.093 -3.589,3.268 -1.34,1.175 -2.438,2.263 -2.441,2.417 -0.002,0.154 -1.285,1.149 -2.852,2.211 -1.568,1.062 -3.253,2.355 -3.746,2.876 -0.495,0.521 -1.572,1.306 -2.396,1.746 -0.826,0.439 -1.653,0.983 -1.841,1.209 -0.305,0.369 -2.315,1.825 -5.054,3.665 -0.555,0.371 -1.232,0.88 -1.507,1.131 -0.455,0.416 -2.261,1.482 -4.854,2.866 -0.553,0.296 -1.234,0.746 -1.512,1.001 -0.279,0.255 -1.298,0.82 -2.262,1.255 -0.966,0.435 -2.887,1.325 -4.27,1.977 -0.086,0.041 -0.175,0.083 -0.265,0.125 L -61.17,-16.08 Z"
             style="fill:#cb4500;fill-opacity:1;fill-rule:nonzero;stroke:none"
             id="path2749" />
        </g>
        <g
           id="g2751"
           transform="translate(453.4609,179.5088)">
          <path
             d="m 0,0 c -0.359,-2.32 -1.182,-6.001 -1.657,-7.415 -0.209,-0.621 -0.7,-2.035 -1.094,-3.143 -0.391,-1.106 -1.016,-3.028 -1.386,-4.273 -1.451,-4.882 -2.383,-7.158 -3.4,-8.294 -0.522,-0.585 -2.375,-4.455 -2.612,-5.462 -0.091,-0.376 -0.416,-1.076 -0.727,-1.555 -0.308,-0.479 -0.826,-1.309 -1.149,-1.846 -0.323,-0.536 -0.963,-1.178 -1.422,-1.425 -0.033,-0.019 -0.07,-0.043 -0.106,-0.067 l -2.634,-18.314 44.222,-5.332 c 0.101,0.287 0.33,0.336 0.997,0.378 1.658,0.104 3.938,0.568 5.371,1.093 0.911,0.333 2.054,0.505 3.52,0.526 0.781,0.011 1.634,0.094 2.504,0.233 L 0.4,2.287 C 0.272,1.635 0.112,0.73 0,0"
             style="fill:#207e56;fill-opacity:1;fill-rule:nonzero;stroke:none"
             id="path2753" />
        </g>
        <g
           id="g2755"
           transform="translate(455.3252,192.8408)">
          <path
             d="M 0,0 C -0.007,-0.091 -0.015,-0.179 -0.019,-0.261 -0.072,-1.09 -0.217,-2.278 -0.34,-2.9 c -0.123,-0.621 -0.224,-1.357 -0.224,-1.633 0,-0.277 -0.121,-0.956 -0.268,-1.509 -0.147,-0.553 -0.269,-1.541 -0.272,-2.195 -0.003,-0.656 -0.116,-1.674 -0.248,-2.263 -0.032,-0.145 -0.07,-0.332 -0.113,-0.545 l 40.028,-57.183 c 0.988,0.159 2.001,0.394 2.968,0.684 L 43.31,2.981 Z"
             style="fill:#238959;fill-opacity:1;fill-rule:nonzero;stroke:none"
             id="path2757" />
        </g>
        <g
           id="g2759"
           transform="translate(512.9717,325.2886)">
          <path
             d="M 0,0 -14.76,57.354 -46.599,-23.193 Z"
             style="fill:#c1c32f;fill-opacity:1;fill-rule:nonzero;stroke:none"
             id="path2761" />
        </g>
        <g
           id="g2763"
           transform="translate(470.4131,470.0732)">
          <path
             d="m 0,0 c -1.353,0.633 -3.101,1.409 -4.007,1.78 -0.969,0.395 -1.929,0.844 -2.137,0.998 -0.566,0.418 -2.654,1.388 -2.987,1.388 -0.159,0 -0.414,0.271 -0.564,0.601 -0.153,0.331 -0.516,0.707 -0.813,0.837 -0.296,0.129 -1.047,0.47 -1.668,0.757 -1.48,0.683 -2.262,0.849 -2.27,0.484 -0.005,-0.167 -0.14,-0.121 -0.316,0.104 -0.169,0.217 -0.928,0.6 -1.688,0.85 -2.594,0.853 -4.995,1.751 -6.41,2.398 -0.892,0.408 -1.718,0.72 -2.558,0.966 l 5.564,-57.055 z"
             style="fill:#d03e00;fill-opacity:1;fill-rule:nonzero;stroke:none"
             id="path2765" />
        </g>
        <g
           id="g2767"
           transform="translate(466.373,302.0952)">
          <path
             d="M 0,0 31.839,80.548 -36.9,82.234 Z"
             style="fill:#d2c622;fill-opacity:1;fill-rule:nonzero;stroke:none"
             id="path2769" />
        </g>
        <g
           id="g2771"
           transform="translate(449.9258,242.2109)">
          <path
             d="m 0,0 -0.513,-7.591 c 0.927,-1.511 2.768,-4.331 3.284,-5.003 0.281,-0.367 0.512,-0.775 0.512,-0.909 0,-0.132 0.238,-0.542 0.528,-0.91 0.29,-0.367 0.682,-1.372 0.875,-2.233 0.191,-0.86 0.504,-1.903 0.695,-2.317 0.188,-0.415 0.881,-2.169 1.538,-3.896 0.657,-1.729 1.414,-3.62 1.683,-4.202 0.409,-0.885 0.449,-1.257 0.248,-2.262 -0.133,-0.662 -0.414,-2.051 -0.625,-3.089 -0.211,-1.036 -0.441,-2.45 -0.511,-3.143 -0.069,-0.69 -0.293,-2.104 -0.496,-3.14 -0.336,-1.708 -0.664,-3.482 -1.467,-7.92 -0.136,-0.747 -0.284,-1.923 -0.352,-2.755 l 43.31,2.981 z"
             style="fill:#52ae66;fill-opacity:1;fill-rule:nonzero;stroke:none"
             id="path2773" />
        </g>
        <g
           id="g2775"
           transform="translate(449.9258,242.2109)">
          <path
             d="m 0,0 48.709,-46.389 0.193,1.915 c -0.249,0.816 -0.53,1.903 -0.868,3.335 -0.254,1.075 -0.642,2.407 -0.862,2.958 -0.221,0.551 -0.402,1.493 -0.402,2.089 0,0.751 -0.149,1.222 -0.479,1.522 -0.496,0.448 -0.67,1.344 -0.903,4.652 -0.072,1.027 -0.178,1.915 -0.235,1.972 -0.056,0.056 0.038,0.518 0.213,1.023 0.176,0.507 0.327,2.087 0.34,3.511 0.011,1.425 0.127,2.725 0.258,2.891 0.131,0.166 0.319,0.751 0.417,1.306 0.098,0.553 0.432,1.514 0.739,2.137 0.307,0.622 0.698,1.765 0.868,2.541 0.226,1.029 0.459,1.477 0.866,1.665 0.389,0.18 0.702,0.738 1.039,1.859 0.268,0.879 0.578,1.708 0.693,1.839 0.113,0.132 0.206,0.435 0.206,0.672 0,0.238 0.259,0.754 0.575,1.145 0.657,0.811 1.184,1.93 1.184,2.515 0,0.18 0.188,0.504 0.445,0.792 l 0.772,7.634 z"
             style="fill:#5aaa66;fill-opacity:1;fill-rule:nonzero;stroke:none"
             id="path2777" />
        </g>
        <g
           id="g2779"
           transform="translate(449.9258,242.2109)">
          <path
             d="m 0,0 53.768,3.584 -37.321,56.3 z"
             style="fill:#86c06a;fill-opacity:1;fill-rule:nonzero;stroke:none"
             id="path2781" />
        </g>
        <g
           id="g2783"
           transform="translate(429.4727,384.3291)">
          <path
             d="M 0,0 68.739,-1.686 21.086,39.853 Z"
             style="fill:#d89800;fill-opacity:1;fill-rule:nonzero;stroke:none"
             id="path2785" />
        </g>
        <g
           id="g2787"
           transform="translate(218.9277,119.6348)">
          <path
             d="m 0,0 c -0.146,-0.262 -0.27,-0.527 -0.352,-0.768 -0.223,-0.658 -0.631,-1.365 -0.906,-1.574 -0.335,-0.255 -0.67,-1.118 -1.023,-2.639 -0.543,-2.345 -0.57,-2.418 -1.295,-3.437 -0.241,-0.339 -0.512,-1.313 -0.6,-2.16 l -0.089,-0.847 48.557,-5.169 c 0.471,0.143 0.889,0.307 1.126,0.454 0.444,0.274 1.445,0.602 2.225,0.73 0.779,0.127 2.105,0.574 2.947,0.994 0.84,0.421 1.636,0.765 1.767,0.765 0.13,0 0.573,0.282 0.984,0.627 0.412,0.346 0.991,0.63 1.289,0.63 1.502,0 3.811,1.584 5.539,3.544 L 34.056,0.488 Z"
             style="fill:#b69c2a;fill-opacity:1;fill-rule:nonzero;stroke:none"
             id="path2789" />
        </g>
        <g
           id="g2791"
           transform="translate(368.1133,354.8096)">
          <path
             d="M 0,0 24.038,-65.999 61.359,29.52 Z"
             style="fill:#e8e22a;fill-opacity:1;fill-rule:nonzero;stroke:none"
             id="path2793" />
        </g>
        <g
           id="g2795"
           transform="translate(439.9082,146.0293)">
          <path
             d="m 0,0 c -0.461,-0.288 -1.124,-0.935 -1.537,-1.507 -0.443,-0.619 -1.246,-1.559 -1.782,-2.091 -0.537,-0.531 -0.977,-1.086 -0.977,-1.233 0,-0.146 -1.061,-0.953 -2.362,-1.793 -1.708,-1.103 -2.456,-1.748 -2.695,-2.322 -0.057,-0.142 -0.218,-0.382 -0.451,-0.687 l 7.169,-8.681 z"
             style="fill:#3f9d61;fill-opacity:1;fill-rule:nonzero;stroke:none"
             id="path2797" />
        </g>
        <g
           id="g2799"
           transform="translate(466.373,302.0952)">
          <path
             d="m 0,0 -74.222,-13.285 27.657,-22.307 c 1.575,-0.144 2.5,-0.315 2.944,-0.537 0.46,-0.231 1.479,-0.436 2.263,-0.456 l 1.424,-0.033 v -1.778 c 0,-1.388 0.152,-2.11 1.051,-3.394 l 22.436,-18.094 z"
             style="fill:#b4e068;fill-opacity:1;fill-rule:nonzero;stroke:none"
             id="path2801" />
        </g>
        <g
           id="g2803"
           transform="translate(392.1514,288.8105)">
          <path
             d="M 0,0 74.222,13.285 37.321,95.519 Z"
             style="fill:#d1df35;fill-opacity:1;fill-rule:nonzero;stroke:none"
             id="path2805" />
        </g>
        <g
           id="g2807"
           transform="translate(419.8193,484.3896)">
          <path
             d="m 0,0 c -2.715,0.046 -4.995,-0.009 -6.201,-0.199 -8.395,-1.327 -10.108,-1.696 -12.311,-2.651 -0.685,-0.298 -2.067,-0.699 -3.068,-0.89 -1.001,-0.192 -2.531,-0.644 -3.4,-1.004 -0.87,-0.361 -2.43,-0.891 -3.468,-1.178 -5.655,-1.569 -10.511,-2.808 -13.123,-3.352 -1.62,-0.337 -3.613,-0.838 -4.429,-1.113 -2.396,-0.807 -3.775,-1.044 -6.578,-1.133 -1.452,-0.045 -3.319,-0.256 -4.147,-0.467 -1.404,-0.358 -2.794,-0.598 -4.316,-0.736 l 1.532,-51.069 z"
             style="fill:#e94d00;fill-opacity:1;fill-rule:nonzero;stroke:none"
             id="path2809" />
        </g>
        <g
           id="g2811"
           transform="translate(447.1904,238.0703)">
          <path
             d="M 0,0 C 0.07,-0.081 0.15,-0.165 0.238,-0.244 0.515,-0.494 0.74,-0.843 0.74,-1.018 0.74,-1.195 0.892,-1.49 1.077,-1.676 1.264,-1.861 1.562,-2.295 1.744,-2.637 1.83,-2.8 2,-3.088 2.223,-3.45 l 0.512,7.591 z"
             style="fill:#60b66a;fill-opacity:1;fill-rule:nonzero;stroke:none"
             id="path2813" />
        </g>
        <g
           id="g2815"
           transform="translate(368.3799,239.3252)">
          <path
             d="m 0,0 c -0.073,0.44 -0.158,0.761 -0.251,0.95 -0.208,0.414 -0.327,0.835 -0.266,0.935 0.653,1.054 0.889,4.251 0.61,8.237 -0.161,2.318 -0.294,4.442 -0.29,4.719 0.008,1.334 0.279,3.175 0.508,3.456 0.115,0.142 0.265,0.586 0.367,1.058 l -11.277,2.297 z"
             style="fill:#8ad074;fill-opacity:1;fill-rule:nonzero;stroke:none"
             id="path2817" />
        </g>
        <g
           id="g2819"
           transform="translate(442.3643,243.75)">
          <path
             d="m 0,0 c 0.591,-0.48 0.79,-0.733 0.79,-0.937 0,-0.891 0.848,-1.834 1.653,-1.841 0.493,-0.003 2.117,-1.888 2.117,-2.456 0,-0.089 0.11,-0.263 0.266,-0.446 l 2.735,4.141 z"
             style="fill:#8ad074;fill-opacity:1;fill-rule:nonzero;stroke:none"
             id="path2821" />
        </g>
        <g
           id="g2823"
           transform="translate(450.5586,424.1816)">
          <path
             d="m 0,0 -5.564,57.054 c -0.787,0.23 -1.586,0.4 -2.469,0.528 -0.968,0.14 -2.891,0.601 -4.273,1.025 -2.544,0.779 -11.792,1.489 -18.433,1.601 L -90.248,-3.584 Z"
             style="fill:#e66200;fill-opacity:1;fill-rule:nonzero;stroke:none"
             id="path2825" />
        </g>
        <g
           id="g2827"
           transform="translate(450.5586,424.1816)">
          <path
             d="m 0,0 -90.248,-3.584 69.162,-36.269 z"
             style="fill:#e99500;fill-opacity:1;fill-rule:nonzero;stroke:none"
             id="path2829" />
        </g>
        <g
           id="g2831"
           transform="translate(427.4902,260.3057)">
          <path
             d="m 0,0 c 0.378,-0.537 0.885,-1.172 1.569,-1.996 0.632,-0.763 1.421,-1.95 1.755,-2.639 0.333,-0.689 0.729,-1.497 0.879,-1.795 0.354,-0.694 2.891,-2.6 3.463,-2.6 0.514,0 1.269,-0.743 2.142,-2.108 1.019,-1.591 2.833,-3.762 3.609,-4.323 0.644,-0.463 1.116,-0.816 1.457,-1.095 l 7.562,-1.539 z"
             style="fill:#b5e377;fill-opacity:1;fill-rule:nonzero;stroke:none"
             id="path2833" />
        </g>
        <g
           id="g2835"
           transform="translate(373.6904,273.8613)">
          <path
             d="m 0,0 c 0.041,-0.236 0.301,-0.385 0.84,-0.488 0.484,-0.093 1.318,-0.405 1.853,-0.692 1.309,-0.699 2.944,-1.014 6.694,-1.29 3.512,-0.258 6.163,-0.739 7.666,-1.392 1.261,-0.549 4.203,-1.376 4.418,-1.242 0.09,0.054 0.545,-0.015 1.013,-0.154 1.173,-0.347 7.216,-0.641 10.218,-0.496 1.49,0.072 3.321,-0.114 3.873,-0.393 0.366,-0.188 1.271,-0.391 2.009,-0.454 0.74,-0.062 1.514,-0.173 1.721,-0.25 0.208,-0.074 2.074,-0.246 4.148,-0.379 0.621,-0.041 1.174,-0.083 1.664,-0.128 L 18.461,14.949 Z"
             style="fill:#b5e377;fill-opacity:1;fill-rule:nonzero;stroke:none"
             id="path2837" />
        </g>
        <g
           id="g2839"
           transform="translate(369.0576,258.6807)">
          <path
             d="m 0,0 c 0.022,0.099 0.041,0.198 0.058,0.298 0.189,1.143 1.432,3.95 1.872,4.22 0.151,0.095 0.275,0.395 0.275,0.668 0,0.272 0.168,0.56 0.375,0.638 0.206,0.08 0.504,0.613 0.66,1.188 0.157,0.573 0.499,1.523 0.759,2.112 0.551,1.247 0.669,2.823 0.377,5.025 -0.04,0.292 -0.065,0.545 -0.08,0.759 L -11.276,2.297 Z"
             style="fill:#b5e377;fill-opacity:1;fill-rule:nonzero;stroke:none"
             id="path2841" />
        </g>
        <g
           id="g2843"
           transform="translate(430.1045,136.3965)">
          <path
             d="m 0,0 c -0.491,-0.642 -1.302,-1.562 -2.148,-2.428 -2.855,-2.914 -3.682,-4.131 -5.441,-8.001 -0.565,-1.245 -1.36,-2.981 -1.768,-3.858 -0.03,-0.066 -0.061,-0.132 -0.089,-0.197 l 16.615,5.802 z"
             style="fill:#3a8a5c;fill-opacity:1;fill-rule:nonzero;stroke:none"
             id="path2845" />
        </g>
        <g
           id="g2847"
           transform="translate(398.8008,124.71)">
          <path
             d="M 0,0 C 0.716,2.16 1.194,3.438 1.414,3.776 1.505,3.918 1.583,4.751 1.588,5.628 1.591,6.505 1.653,7.281 1.725,7.351 1.797,7.424 1.736,7.702 1.592,7.972 1.39,8.35 1.424,8.53 1.738,8.761 2.334,9.195 1.62,13.971 0.858,15.065 L -0.574,-1.573 C -0.374,-1.071 -0.178,-0.535 0,0"
             style="fill:#3a8a5c;fill-opacity:1;fill-rule:nonzero;stroke:none"
             id="path2849" />
        </g>
        <g
           id="g2851"
           transform="translate(429.4727,384.3291)">
          <path
             d="m 0,0 -69.162,36.268 7.803,-65.788 z"
             style="fill:#f2b400;fill-opacity:1;fill-rule:nonzero;stroke:none"
             id="path2853" />
        </g>
        <g
           id="g2855"
           transform="translate(336.2725,306.5229)">
          <path
             d="M 0,0 55.879,-17.712 31.841,48.287 Z"
             style="fill:#f0f03e;fill-opacity:1;fill-rule:nonzero;stroke:none"
             id="path2857" />
        </g>
        <g
           id="g2859"
           transform="translate(321.5117,210.8779)">
          <path
             d="m 0,0 c 0.483,-1.073 1.321,-3.501 1.603,-4.716 0.095,-0.41 0.627,-1.71 1.181,-2.886 0.554,-1.178 1.238,-2.806 1.519,-3.618 0.28,-0.812 0.667,-1.774 0.857,-2.139 0.191,-0.367 0.348,-0.791 0.348,-0.945 0.003,-0.468 1.534,-5.176 2.072,-6.374 0.278,-0.617 0.61,-1.963 0.737,-2.992 0.128,-1.028 0.34,-2.07 0.472,-2.316 0.132,-0.245 0.289,-1.615 0.35,-3.041 0.002,-0.043 0.004,-0.081 0.006,-0.124 l 48.099,-7.811 c -0.027,0.444 -0.127,0.86 -0.301,1.225 -0.224,0.471 -0.388,1.317 -0.367,1.881 0.024,0.563 -0.061,1.183 -0.185,1.379 -0.124,0.194 -0.247,0.864 -0.272,1.485 -0.098,2.456 -0.59,5.812 -0.955,6.519 -0.221,0.427 -0.385,1.39 -0.385,2.254 0,0.829 -0.112,2.051 -0.248,2.714 -0.135,0.665 -0.358,2.351 -0.497,3.747 -0.14,1.445 -0.464,3.043 -0.746,3.701 -0.363,0.851 -0.526,1.921 -0.606,3.996 -0.062,1.558 -0.253,3.173 -0.427,3.589 -0.173,0.414 -0.398,2.225 -0.5,4.022 -0.103,1.797 -0.485,4.851 -0.853,6.787 -1.158,6.12 -1.646,8.75 -1.932,10.431 -0.154,0.899 -0.428,1.918 -0.613,2.262 -0.711,1.331 -1.08,3.263 -1.22,6.377 -0.058,1.302 -0.149,2.329 -0.269,3.04 L 36.27,50.1 Z"
             style="fill:#99d575;fill-opacity:1;fill-rule:nonzero;stroke:none"
             id="path2861" />
        </g>
        <g
           id="g2863"
           transform="translate(343.6855,112.0166)">
          <path
             d="m 0,0 c 0.263,0 0.777,-0.212 1.145,-0.47 0.621,-0.437 2.705,-1.039 4.847,-1.4 0.503,-0.084 1.383,-0.494 1.957,-0.91 0.575,-0.414 1.352,-0.819 1.727,-0.894 0.905,-0.18 1.482,-0.626 1.599,-1.233 0.08,-0.418 0.324,-0.506 1.53,-0.55 0.789,-0.029 1.748,-0.211 2.134,-0.405 0.13,-0.067 0.272,-0.121 0.419,-0.172 l 27.074,5.514 c 0.369,0.235 0.747,0.321 1.461,0.297 L 46.955,0.4 c 0.393,0.448 1.095,1.205 1.796,1.936 0.931,0.971 1.766,2.001 1.857,2.289 0.091,0.29 0.66,1.156 1.261,1.925 0.604,0.769 1.096,1.534 1.096,1.696 0,0.166 0.091,0.3 0.201,0.3 0.212,0 0.805,1.142 1.375,2.574 l 1.433,16.639 c -0.044,0.064 -0.089,0.118 -0.134,0.157 -0.199,0.164 -0.36,0.486 -0.36,0.715 0,0.228 -0.153,0.639 -0.339,0.912 -0.187,0.271 -0.652,1.345 -1.033,2.381 -0.445,1.197 -1.008,2.188 -1.548,2.717 -0.468,0.459 -0.851,0.947 -0.851,1.086 0,0.139 -0.451,0.727 -1.002,1.304 -0.551,0.578 -1.792,2.013 -2.759,3.189 -2.322,2.827 -2.408,2.924 -2.829,3.175 -0.201,0.121 -0.834,0.974 -1.505,1.963 L -2.774,5.939 C -2.54,2.813 -1.509,0 0,0"
             style="fill:#518d5d;fill-opacity:1;fill-rule:nonzero;stroke:none"
             id="path2865" />
        </g>
        <g
           id="g2867"
           transform="translate(331.5635,177.0937)">
          <path
             d="m 0,0 c 0.179,-0.33 0.464,-1.167 0.635,-1.857 0.277,-1.127 0.748,-2.403 1.775,-4.815 0.186,-0.435 0.337,-0.865 0.337,-0.954 0,-0.091 0.397,-0.782 0.881,-1.538 0.483,-0.757 0.879,-1.54 0.879,-1.738 0,-0.543 0.994,-2.964 1.402,-3.419 0.197,-0.218 0.358,-0.58 0.358,-0.806 0,-0.443 3.32,-3.903 4.805,-5.008 0.773,-0.573 1.013,-1.01 1.591,-2.888 0.376,-1.216 0.886,-2.722 1.134,-3.344 0.48,-1.201 1.391,-4.029 1.595,-4.952 0.067,-0.305 -0.032,-0.758 -0.22,-1.005 -0.511,-0.674 -0.436,-1.043 0.378,-1.857 0.889,-0.888 1.505,-3.17 1.097,-4.063 -0.166,-0.366 -0.172,-0.787 -0.019,-1.194 0.369,-0.976 0.083,-2.285 -0.777,-3.558 -0.432,-0.641 -0.786,-1.431 -0.788,-1.757 -0.003,-0.768 -1.309,-3.041 -2.109,-3.669 -0.342,-0.268 -0.884,-1.004 -1.203,-1.631 -0.32,-0.628 -0.891,-1.641 -1.267,-2.251 -1.002,-1.621 -1.326,-4.329 -1.136,-6.834 l 46.388,39.419 c -0.942,1.39 -1.96,3.043 -1.96,3.301 0,0.19 -0.279,0.528 -0.622,0.752 -0.34,0.225 -0.913,1.047 -1.27,1.829 -0.358,0.781 -0.937,1.721 -1.288,2.087 -0.476,0.499 -0.651,0.974 -0.694,1.886 -0.06,1.291 -0.81,2.738 -2.141,4.131 -0.614,0.641 -0.693,0.889 -0.587,1.833 0.028,0.247 0.034,0.488 0.018,0.722 L -0.907,4.633 C -0.796,2.126 -0.594,1.1 0,0"
             style="fill:#79af65;fill-opacity:1;fill-rule:nonzero;stroke:none"
             id="path2869" />
        </g>
        <g
           id="g2871"
           transform="translate(265.897,504.0264)">
          <path
             d="m 0,0 c -1.153,0.214 -2.969,0.213 -7.122,0.022 -1.936,-0.088 -3.802,-0.155 -4.148,-0.15 -0.345,0.007 -1.873,-0.011 -3.394,-0.039 -3.019,-0.055 -2.998,-0.055 -13.573,0.194 -11.298,0.265 -13.552,0.208 -15.43,-0.393 -0.882,-0.282 -2.003,-0.513 -2.491,-0.513 -0.489,0 -1.464,-0.168 -2.167,-0.373 -1.124,-0.327 -2.698,-0.716 -4.115,-1.033 l 36.786,-2.916 z"
             style="fill:#f05100;fill-opacity:1;fill-rule:nonzero;stroke:none"
             id="path2873" />
        </g>
        <g
           id="g2875"
           transform="translate(312.9131,230.3926)">
          <path
             d="m 0,0 c 1.119,-2.567 2.786,-5.979 3.072,-6.154 0.125,-0.077 0.228,-0.392 0.228,-0.7 0,-0.306 0.153,-0.781 0.342,-1.052 0.404,-0.586 2.403,-4.518 3.156,-6.205 0.29,-0.651 0.677,-1.899 0.86,-2.773 0.184,-0.873 0.51,-1.866 0.726,-2.209 0.057,-0.09 0.132,-0.236 0.215,-0.422 l 36.269,50.1 z"
             style="fill:#c5eb6b;fill-opacity:1;fill-rule:nonzero;stroke:none"
             id="path2877" />
        </g>
        <g
           id="g2879"
           transform="translate(360.3105,420.5972)">
          <path
             d="M 0,0 -26.99,-53.347 7.803,-65.788 Z"
             style="fill:#fdbb00;fill-opacity:1;fill-rule:nonzero;stroke:none"
             id="path2881" />
        </g>
        <g
           id="g2883"
           transform="translate(336.2725,306.5229)">
          <path
             d="m 0,0 21.509,-45.545 15.572,12.611 c -0.033,0.526 0.007,0.813 0.119,0.813 0.136,0 0.232,-0.194 0.213,-0.43 -0.003,-0.039 -0.002,-0.075 0.005,-0.111 l 18.461,14.95 z"
             style="fill:#dff35f;fill-opacity:1;fill-rule:nonzero;stroke:none"
             id="path2885" />
        </g>
        <g
           id="g2887"
           transform="translate(223.6431,124.2539)">
          <path
             d="M 0,0 C -1.398,-0.537 -2.144,-1.104 -2.558,-1.89 -2.753,-2.258 -3.305,-2.927 -3.787,-3.375 -4.104,-3.67 -4.448,-4.142 -4.715,-4.619 l 34.056,0.488 z"
             style="fill:#bb8b0d;fill-opacity:1;fill-rule:nonzero;stroke:none"
             id="path2889" />
        </g>
        <g
           id="g2891"
           transform="translate(345.2266,471.8657)">
          <path
             d="m 0,0 c -1.437,0.05 -2.832,0.143 -3.223,0.215 -1.568,0.293 -8.638,0.959 -11,1.038 -1.336,0.043 -2.862,0.2 -3.393,0.348 -0.531,0.147 -1.758,0.272 -2.725,0.277 -2.234,0.011 -4.743,0.638 -6.388,1.484 l 7.866,-64.541 z"
             style="fill:#f94d00;fill-opacity:1;fill-rule:nonzero;stroke:none"
             id="path2893" />
        </g>
        <g
           id="g2895"
           transform="translate(360.3105,420.5972)">
          <path
             d="m 0,0 -1.532,51.069 c -1.765,-0.16 -3.704,-0.181 -6.051,-0.081 -2.317,0.101 -5.503,0.219 -7.078,0.266 -0.142,0.004 -0.283,0.009 -0.423,0.014 L -33.947,-9.911 Z"
             style="fill:#fe6800;fill-opacity:1;fill-rule:nonzero;stroke:none"
             id="path2897" />
        </g>
        <g
           id="g2899"
           transform="translate(326.3633,410.6865)">
          <path
             d="M 0,0 6.957,-43.436 33.947,9.911 Z"
             style="fill:#ffa500;fill-opacity:1;fill-rule:nonzero;stroke:none"
             id="path2901" />
        </g>
        <g
           id="g2903"
           transform="translate(333.3203,367.25)">
          <path
             d="M 0,0 2.952,-60.727 34.793,-12.44 Z"
             style="fill:#fce626;fill-opacity:1;fill-rule:nonzero;stroke:none"
             id="path2905" />
        </g>
        <g
           id="g2907"
           transform="translate(326.3633,410.6865)">
          <path
             d="m 0,0 -7.865,64.541 c -0.78,0.4 -1.366,0.85 -1.636,1.307 -0.233,0.395 -0.639,0.833 -0.9,0.973 -0.747,0.4 -2.766,3.168 -2.766,3.793 0,0.309 -0.313,1.081 -0.696,1.715 -0.382,0.634 -0.865,1.49 -1.075,1.902 -0.208,0.412 -0.772,1.009 -1.252,1.329 -0.48,0.318 -1.687,1.367 -2.681,2.33 -0.994,0.963 -1.904,1.751 -2.023,1.751 -0.118,0 -0.978,0.501 -1.91,1.113 -0.932,0.613 -2.058,1.192 -2.502,1.289 -1.157,0.252 -3.026,1.193 -4.174,2.103 -0.191,0.151 -0.397,0.286 -0.614,0.408 l -42.02,-61.148 z"
             style="fill:#ff6500;fill-opacity:1;fill-rule:nonzero;stroke:none"
             id="path2909" />
        </g>
        <g
           id="g2911"
           transform="translate(336.2725,306.5229)">
          <path
             d="m 0,0 -46.202,-15.151 c 0.313,-0.609 0.5,-1.255 0.501,-1.868 0.002,-0.336 0.188,-0.815 0.416,-1.068 0.228,-0.252 0.447,-0.825 0.485,-1.276 0.038,-0.45 0.184,-1.44 0.321,-2.201 0.138,-0.761 0.259,-2.066 0.269,-2.9 0.012,-0.981 0.193,-1.861 0.511,-2.485 0.052,-0.101 0.105,-0.222 0.157,-0.351 l 65.051,-18.245 z"
             style="fill:#f2f84c;fill-opacity:1;fill-rule:nonzero;stroke:none"
             id="path2913" />
        </g>
        <g
           id="g2915"
           transform="translate(272.5977,284.8701)">
          <path
             d="M 0,0 C -0.001,0.174 0.009,0.357 0.026,0.565 0.032,0.637 0.036,0.71 0.04,0.785 L -1.269,0.355 Z"
             style="fill:#f2f84c;fill-opacity:1;fill-rule:nonzero;stroke:none"
             id="path2917" />
        </g>
        <g
           id="g2919"
           transform="translate(273.8281,278.7812)">
          <path
             d="M 0,0 C 0.186,1.073 0.097,2.41 -0.314,3.287 -1.017,4.78 -1.226,5.349 -1.23,6.089 l -1.269,0.355 z"
             style="fill:#e7f563;fill-opacity:1;fill-rule:nonzero;stroke:none"
             id="path2921" />
        </g>
        <g
           id="g2923"
           transform="translate(292.7305,279.2227)">
          <path
             d="m 0,0 c 0.219,-0.538 0.426,-1.259 0.498,-1.775 0.091,-0.639 0.323,-1.413 0.516,-1.722 0.194,-0.308 0.477,-1.44 0.628,-2.514 0.151,-1.074 0.477,-2.348 0.724,-2.833 0.247,-0.484 0.532,-1.275 0.634,-1.76 0.275,-1.304 1.346,-4.472 1.997,-5.907 0.313,-0.69 0.644,-1.652 0.734,-2.135 0.207,-1.107 3.882,-8.789 4.579,-9.573 0.194,-0.218 0.352,-0.684 0.352,-1.038 0,-0.351 0.17,-0.781 0.378,-0.953 0.207,-0.172 0.377,-0.504 0.377,-0.735 0,-0.232 0.11,-0.533 0.246,-0.668 0.135,-0.135 0.879,-1.486 1.651,-3.002 0.775,-1.519 1.908,-3.41 2.52,-4.205 0.612,-0.795 1.112,-1.646 1.112,-1.892 0,-0.247 0.385,-1.249 0.856,-2.23 0.47,-0.981 1.138,-2.631 1.486,-3.667 0.174,-0.518 0.501,-1.318 0.895,-2.221 l 44.868,30.585 z"
             style="fill:#e7f563;fill-opacity:1;fill-rule:nonzero;stroke:none"
             id="path2925" />
        </g>
        <g
           id="g2927"
           transform="translate(254.249,434.0923)">
          <path
             d="m 0,0 42.021,61.148 c -0.535,0.301 -1.144,0.514 -1.843,0.642 -0.806,0.147 -2.328,0.653 -3.383,1.126 -1.054,0.473 -2.273,0.86 -2.708,0.86 -0.566,0 -1.092,0.275 -1.853,0.97 -1.262,1.151 -1.955,1.543 -2.743,1.547 -0.321,0.003 -1.035,0.167 -1.588,0.367 -0.553,0.198 -1.479,0.367 -2.058,0.373 -0.578,0.006 -1.369,0.136 -1.759,0.289 -0.389,0.153 -1.545,0.376 -2.568,0.495 -1.2,0.139 -2.422,0.488 -3.441,0.979 -1.282,0.619 -1.903,0.762 -3.292,0.764 -0.942,0.001 -2.147,0.121 -2.676,0.268 -0.143,0.04 -0.295,0.075 -0.461,0.106 L -4.006,64.733 Z"
             style="fill:#ff5a00;fill-opacity:1;fill-rule:nonzero;stroke:none"
             id="path2929" />
        </g>
        <g
           id="g2931"
           transform="translate(279.0967,110.7852)">
          <path
             d="M 0,0 C 0.836,0.949 1.538,1.985 1.946,2.973 2.376,4.02 2.832,4.983 2.955,5.115 3.291,5.47 3.214,6.318 2.796,6.873 2.593,7.14 2.427,7.748 2.427,8.221 c 0,0.937 -1.972,4.387 -2.805,4.907 -0.308,0.192 -0.463,0.589 -0.463,1.177 0,0.526 -0.25,1.254 -0.614,1.789 -1.119,1.647 -1.782,4.13 -1.71,6.403 0.053,1.655 -0.057,2.384 -0.585,3.896 -0.358,1.022 -0.746,2.837 -0.863,4.031 -0.117,1.194 -0.351,2.869 -0.518,3.721 -0.125,0.636 -0.193,1.517 -0.19,2.311 L -26.113,9.338 Z"
             style="fill:#a2ba4c;fill-opacity:1;fill-rule:nonzero;stroke:none"
             id="path2933" />
        </g>
        <g
           id="g2935"
           transform="translate(248.7671,382.4316)">
          <path
             d="m 0,0 22.562,-97.206 1.199,1.587 c -0.021,0.071 -0.043,0.136 -0.068,0.182 -0.14,0.263 -0.296,1.411 -0.347,2.551 -0.05,1.142 -0.215,2.583 -0.367,3.205 -0.151,0.622 -0.342,2.008 -0.423,3.079 -0.11,1.442 -0.241,1.949 -0.504,1.949 -0.196,0 -0.356,0.092 -0.356,0.207 0,0.113 0.537,0.168 1.195,0.121 1.954,-0.142 2.284,-0.215 2.755,-0.614 1.079,-0.916 2.811,-1.369 5.163,-1.355 l 53.744,71.112 z"
             style="fill:#ffe100;fill-opacity:1;fill-rule:nonzero;stroke:none"
             id="path2937" />
        </g>
        <g
           id="g2939"
           transform="translate(333.3203,367.25)">
          <path
             d="m 0,0 -53.745,-71.112 c 0.063,10e-4 0.125,0 0.188,10e-4 2.715,0.044 4.567,-0.386 5.544,-1.287 0.353,-0.326 0.807,-0.6 1.006,-0.609 1.426,-0.062 2.981,-1.357 3.758,-2.871 l 46.201,15.151 z"
             style="fill:#fff31b;fill-opacity:1;fill-rule:nonzero;stroke:none"
             id="path2941" />
        </g>
        <g
           id="g2943"
           transform="translate(272.6372,285.6553)">
          <path
             d="M 0,0 C 0.014,0.43 -0.029,0.876 -0.109,1.157 L -1.308,-0.43 Z"
             style="fill:#fff31b;fill-opacity:1;fill-rule:nonzero;stroke:none"
             id="path2945" />
        </g>
        <g
           id="g2947"
           transform="translate(248.7671,382.4316)">
          <path
             d="M 0,0 84.553,-15.182 77.596,28.255 Z"
             style="fill:#ffb500;fill-opacity:1;fill-rule:nonzero;stroke:none"
             id="path2949" />
        </g>
        <g
           id="g2951"
           transform="translate(254.249,434.0923)">
          <path
             d="m 0,0 -5.482,-51.661 77.596,28.255 z"
             style="fill:#ff9b00;fill-opacity:1;fill-rule:nonzero;stroke:none"
             id="path2953" />
        </g>
        <g
           id="g2955"
           transform="translate(264.792,224.0771)">
          <path
             d="m 0,0 3.571,-0.518 c 0.08,2.494 0.123,5.758 0.097,8.649 -0.026,2.957 0.057,4.154 0.334,4.818 0.265,0.633 0.308,1.155 0.155,1.847 -0.295,1.327 -0.109,8.449 0.237,9.096 0.154,0.287 0.323,1.064 0.377,1.725 0.106,1.308 0.784,4.16 1.185,4.987 0.138,0.285 0.228,0.624 0.201,0.756 -0.085,0.402 0.32,1.873 0.557,2.019 0.121,0.076 0.153,0.25 0.068,0.388 -0.085,0.138 0.008,0.441 0.206,0.674 0.199,0.233 0.553,1.103 0.786,1.932 0.234,0.83 0.552,1.848 0.709,2.262 0.156,0.416 0.355,1.886 0.443,3.268 0.086,1.383 0.299,2.769 0.472,3.08 0.235,0.425 0.248,0.813 0.049,1.552 -0.309,1.15 -0.587,3.511 -0.571,4.858 0.009,0.645 -0.098,0.942 -0.339,0.942 -0.4,0 -0.47,0.535 -0.115,0.893 0.296,0.297 0.503,0.841 0.614,1.476 l -2.499,6.444 z"
             style="fill:#e9f345;fill-opacity:1;fill-rule:nonzero;stroke:none"
             id="path2957" />
        </g>
        <g
           id="g2959"
           transform="translate(252.9839,120.123)">
          <path
             d="m 0,0 20.792,27.118 c 10e-4,0.31 0.013,0.608 0.038,0.87 0.084,0.898 0.018,2.561 -0.145,3.696 -0.164,1.133 -0.265,3.058 -0.225,4.276 0.046,1.412 -0.032,2.341 -0.217,2.565 -0.321,0.385 -0.47,2.174 -0.504,6.03 -0.013,1.411 -0.247,3.653 -0.534,5.112 -0.281,1.428 -0.455,2.652 -0.388,2.72 0.069,0.067 -0.134,1.09 -0.449,2.272 -0.316,1.18 -0.52,2.353 -0.455,2.604 0.062,0.237 0.001,1.826 -0.136,3.611 L 0.632,58.197 Z"
             style="fill:#b7cf41;fill-opacity:1;fill-rule:nonzero;stroke:none"
             id="path2961" />
        </g>
        <g
           id="g2963"
           transform="translate(268.2329,220.7119)">
          <path
             d="M 0,0 C 0.049,0.708 0.094,1.696 0.13,2.848 L -3.441,3.365 Z"
             style="fill:#caea4e;fill-opacity:1;fill-rule:nonzero;stroke:none"
             id="path2965" />
        </g>
        <g
           id="g2967"
           transform="translate(253.6162,178.3203)">
          <path
             d="m 0,0 17.145,2.677 c -0.008,0.104 -0.016,0.211 -0.025,0.318 -0.153,1.909 -0.333,5.057 -0.4,6.992 -0.15,4.423 -0.386,8.487 -0.504,8.677 -0.05,0.079 -0.15,1.174 -0.224,2.431 -0.075,1.259 -0.382,3.572 -0.682,5.141 -0.563,2.932 -0.607,3.39 -0.489,5.117 0.036,0.554 -0.066,2.909 -0.229,5.236 -0.163,2.327 -0.215,4.42 -0.114,4.649 0.048,0.113 0.095,0.523 0.139,1.154 l -3.441,3.365 z"
             style="fill:#c8e242;fill-opacity:1;fill-rule:nonzero;stroke:none"
             id="path2969" />
        </g>
        <g
           id="g2971"
           transform="translate(248.7671,382.4316)">
          <path
             d="m 0,0 -46.707,-74.003 c -0.011,-1.316 -0.02,-2.557 -0.024,-3.727 l 69.293,-19.476 z"
             style="fill:#ffdd00;fill-opacity:1;fill-rule:nonzero;stroke:none"
             id="path2973" />
        </g>
        <g
           id="g2975"
           transform="translate(160.6904,501.4175)">
          <path
             d="m 0,0 c -0.05,0.018 -0.1,0.037 -0.149,0.058 -0.973,0.406 -6.022,0.214 -7.22,-0.274 -0.609,-0.25 -1.219,-0.329 -6.184,-0.807 -1.457,-0.139 -2.667,-0.411 -3.321,-0.745 -1.578,-0.804 -2.6,-0.683 -4.954,0.591 -1.133,0.612 -2.727,1.304 -3.539,1.538 -0.814,0.233 -1.597,0.518 -1.741,0.632 -0.358,0.285 -2.193,0.679 -4.554,0.978 -1.085,0.137 -3.385,0.467 -5.112,0.734 -1.727,0.268 -3.24,0.425 -3.36,0.352 -0.12,-0.075 -1.365,-0.119 -2.766,-0.1 -1.401,0.02 -3.113,-0.073 -3.805,-0.207 -0.691,-0.133 -2.426,-0.375 -3.854,-0.536 -3.815,-0.433 -5.557,-1.424 -7.967,-4.529 -0.278,-0.359 -0.983,-0.953 -1.567,-1.322 -0.584,-0.369 -1.347,-1.122 -1.695,-1.674 -0.349,-0.551 -0.737,-1.003 -0.864,-1.003 -0.128,0 -0.302,-0.222 -0.388,-0.492 -0.034,-0.107 -0.136,-0.29 -0.279,-0.512 l 3.373,-1.178 z"
             style="fill:#e92c00;fill-opacity:1;fill-rule:nonzero;stroke:none"
             id="path2977" />
        </g>
        <g
           id="g2979"
           transform="translate(202.0298,302.7852)">
          <path
             d="m 0,0 c -0.016,-10.513 0.243,-14.661 0.883,-15.497 0.13,-0.169 0.289,-1.237 0.353,-2.374 0.064,-1.135 0.235,-2.284 0.379,-2.554 0.547,-1.022 1.238,-3.862 1.235,-5.078 -0.004,-1.387 0.637,-5.068 1.462,-8.412 1.181,-4.78 1.605,-6.578 1.676,-7.108 0.042,-0.308 0.195,-1.463 0.341,-2.569 0.146,-1.106 0.37,-2.295 0.498,-2.639 0.128,-0.346 0.423,-1.307 0.656,-2.138 0.233,-0.829 0.487,-1.678 0.564,-1.885 0.079,-0.207 0.4,-1.508 0.714,-2.891 0.989,-4.358 1.287,-5.48 1.97,-7.416 0.753,-2.131 1.438,-4.254 2.028,-6.283 0.221,-0.761 0.622,-1.862 0.891,-2.448 0.268,-0.587 0.488,-1.314 0.488,-1.618 0,-0.499 0.2,-1.45 1.048,-4.983 0.078,-0.33 0.193,-0.708 0.359,-1.174 l 47.217,-1.641 z"
             style="fill:#fae01e;fill-opacity:1;fill-rule:nonzero;stroke:none"
             id="path2981" />
        </g>
        <g
           id="g2983"
           transform="translate(271.3291,285.2256)">
          <path
             d="m 0,0 -69.294,19.476 c -0.002,-0.661 -0.005,-1.299 -0.005,-1.916 l 62.762,-78.708 z"
             style="fill:#ffee20;fill-opacity:1;fill-rule:nonzero;stroke:none"
             id="path2985" />
        </g>
        <g
           id="g2987"
           transform="translate(250.2432,498.8257)">
          <path
             d="m 0,0 -60.306,-72.536 64.312,7.803 z"
             style="fill:#ff6800;fill-opacity:1;fill-rule:nonzero;stroke:none"
             id="path2989" />
        </g>
        <g
           id="g2991"
           transform="translate(264.792,224.0771)">
          <path
             d="m 0,0 -47.217,1.641 c 0.317,-0.892 0.822,-2.116 1.637,-3.979 0.65,-1.486 0.978,-2.848 0.978,-4.062 0,-1.273 1.034,-5.092 1.568,-5.79 0.322,-0.422 0.936,-2.821 0.953,-3.721 0.008,-0.416 0.188,-1.209 0.4,-1.762 1.204,-3.139 1.82,-5.275 2.102,-7.29 0.122,-0.868 0.297,-1.764 0.449,-2.344 l 27.954,-18.45 z"
             style="fill:#dddf2f;fill-opacity:1;fill-rule:nonzero;stroke:none"
             id="path2993" />
        </g>
        <g
           id="g2995"
           transform="translate(160.8384,360.0811)">
          <path
             d="m 0,0 12.455,-17.41 c 0.829,0.021 1.891,-0.158 2.877,-0.56 0.806,-0.327 0.955,-0.295 2.891,0.628 1.122,0.536 2.606,1.114 3.297,1.287 2.144,0.534 2.851,0.831 2.96,1.242 0.144,0.554 1.061,0.941 2.816,1.189 1.232,0.174 1.559,0.324 1.808,0.828 0.313,0.63 2.021,1.678 2.292,1.406 0.084,-0.084 -0.041,-1.308 -0.278,-2.721 -0.355,-2.114 -0.38,-2.835 -0.143,-4.077 0.157,-0.829 0.3,-2.941 0.317,-4.692 0.029,-2.944 0.075,-3.231 0.603,-3.793 0.456,-0.485 0.596,-0.986 0.694,-2.472 0.066,-1.024 0.228,-2.202 0.358,-2.617 0.222,-0.71 0.292,-1.586 0.285,-3.644 -0.01,-4.014 2.07,-6.035 4.378,-4.256 0.389,0.298 1.777,-0.081 2.453,-0.672 0.793,-0.692 1.233,-3.768 1.186,-8.283 -0.011,-1.054 -0.02,-2.065 -0.028,-3.036 l 46.708,74.004 z"
             style="fill:#ffba00;fill-opacity:1;fill-rule:nonzero;stroke:none"
             id="path2997" />
        </g>
        <g
           id="g2999"
           transform="translate(250.2432,498.8257)">
          <path
             d="m 0,0 -36.786,2.915 c -1.546,-0.345 -2.905,-0.604 -3.295,-0.604 -0.842,0 -3.367,-0.892 -4.301,-1.518 -0.346,-0.233 -1.816,-1.002 -3.267,-1.71 -1.453,-0.708 -3.205,-1.622 -3.896,-2.031 -0.692,-0.41 -1.654,-0.966 -2.137,-1.235 -0.485,-0.271 -1.354,-1.012 -1.933,-1.649 -1.274,-1.4 -2.424,-1.204 -4.226,0.721 -0.614,0.655 -1.016,0.836 -2.164,0.969 -0.776,0.091 -1.85,0.351 -2.388,0.579 -0.538,0.229 -1.94,0.677 -3.115,0.995 -0.233,0.064 -0.492,0.134 -0.764,0.209 l 7.966,-70.177 z"
             style="fill:#fd5c00;fill-opacity:1;fill-rule:nonzero;stroke:none"
             id="path3001" />
        </g>
        <g
           id="g3003"
           transform="translate(253.6162,178.3203)">
          <path
             d="m 0,0 -24.943,-16.531 c -0.287,-1.62 -0.234,-2.866 0.158,-4.778 0.214,-1.038 0.392,-2.68 0.398,-3.65 0.009,-1.466 0.135,-1.997 0.755,-3.143 1.71,-3.164 2.09,-4.128 2.269,-5.757 0.102,-0.926 0.3,-1.903 0.442,-2.171 0.65,-1.233 0.636,-3.523 -0.034,-5.435 -0.354,-1.011 -0.765,-2.623 -0.913,-3.579 -0.149,-0.957 -0.327,-1.83 -0.396,-1.942 -0.069,-0.113 -0.001,-0.436 0.151,-0.722 0.231,-0.43 0.155,-0.674 -0.449,-1.45 -0.4,-0.513 -0.795,-1.124 -0.88,-1.359 -0.084,-0.233 -0.472,-0.622 -0.859,-0.863 -0.388,-0.241 -0.987,-0.685 -1.333,-0.99 -0.346,-0.304 -1.62,-0.843 -2.832,-1.197 -0.574,-0.167 -1.071,-0.331 -1.507,-0.499 l 29.341,-4.131 z"
             style="fill:#c1b92f;fill-opacity:1;fill-rule:nonzero;stroke:none"
             id="path3005" />
        </g>
        <g
           id="g3007"
           transform="translate(229.1807,179.2412)">
          <path
             d="M 0,0 C 0.07,-0.422 0.13,-0.838 0.158,-1.116 0.206,-1.6 0.369,-3.205 0.518,-4.685 0.739,-6.868 0.723,-7.7 0.429,-9.085 0.23,-10.024 0.065,-11.719 0.063,-12.852 c -0.002,-1.131 -0.172,-2.777 -0.376,-3.658 -0.077,-0.332 -0.141,-0.643 -0.194,-0.942 l 24.943,16.531 z"
             style="fill:#ccba1c;fill-opacity:1;fill-rule:nonzero;stroke:none"
             id="path3009" />
        </g>
        <g
           id="g3011"
           transform="translate(225.6616,196.7705)">
          <path
             d="m 0,0 c 0.066,-0.25 0.128,-0.442 0.178,-0.547 0.451,-0.914 0.83,-2.61 1.247,-5.58 0.203,-1.442 0.529,-3.123 0.726,-3.736 0.196,-0.614 0.495,-2.132 0.663,-3.377 0.167,-1.243 0.411,-2.771 0.54,-3.393 0.056,-0.266 0.113,-0.583 0.165,-0.896 l 24.436,-0.921 z"
             style="fill:#ddc91b;fill-opacity:1;fill-rule:nonzero;stroke:none"
             id="path3013" />
        </g>
        <g
           id="g3015"
           transform="translate(189.937,426.29)">
          <path
             d="m 0,0 58.83,-43.858 5.482,51.66 z"
             style="fill:#ff8500;fill-opacity:1;fill-rule:nonzero;stroke:none"
             id="path3017" />
        </g>
        <g
           id="g3019"
           transform="translate(160.8384,360.0811)">
          <path
             d="M 0,0 87.929,22.351 29.099,66.209 Z"
             style="fill:#ff9400;fill-opacity:1;fill-rule:nonzero;stroke:none"
             id="path3021" />
        </g>
        <g
           id="g3023"
           transform="translate(189.937,426.29)">
          <path
             d="m 0,0 -7.966,70.177 c -1.099,0.302 -2.427,0.676 -3.257,0.919 -1.037,0.301 -2.507,0.722 -3.268,0.934 -0.761,0.214 -2.398,0.891 -3.639,1.507 -2.152,1.068 -2.33,1.113 -3.859,0.97 -1.203,-0.112 -1.796,-0.05 -2.374,0.249 -0.593,0.307 -1.158,0.36 -2.464,0.231 -1.137,-0.112 -1.821,-0.073 -2.42,0.141 l -59.946,-8.497 z"
             style="fill:#fa4f00;fill-opacity:1;fill-rule:nonzero;stroke:none"
             id="path3025" />
        </g>
        <g
           id="g3027"
           transform="translate(100.7441,492.9214)">
          <path
             d="m 0,0 0.844,-66.42 88.349,-0.211 z"
             style="fill:#ff4e00;fill-opacity:1;fill-rule:nonzero;stroke:none"
             id="path3029" />
        </g>
        <g
           id="g3031"
           transform="translate(127.2783,299.8784)">
          <path
             d="M 0,0 C 0.083,0.552 0.171,1.187 0.264,1.922 0.483,3.65 0.707,5.29 0.764,5.566 0.772,5.61 0.786,5.682 0.802,5.773 l -4.985,0.028 z"
             style="fill:#ffb900;fill-opacity:1;fill-rule:nonzero;stroke:none"
             id="path3033" />
        </g>
        <g
           id="g3035"
           transform="translate(131.7637,318.1743)">
          <path
             d="m 0,0 c 0.456,0.061 1.033,0.194 1.472,0.349 0.599,0.211 1.257,0.32 1.462,0.24 0.455,-0.173 2.77,0.362 3.294,0.763 0.208,0.158 0.846,0.3 1.419,0.316 0.574,0.015 1.432,0.232 1.908,0.482 3.109,1.632 5.358,2.598 7.181,3.083 0.594,0.159 1.144,0.453 1.22,0.652 0.078,0.201 0.401,0.364 0.719,0.364 0.336,0 0.848,0.317 1.215,0.754 0.348,0.415 0.752,0.754 0.895,0.754 0.44,0 1.798,0.916 2.192,1.48 0.222,0.316 0.647,0.532 1.05,0.533 0.991,0.003 4.431,2.885 4.9,4.106 0.141,0.368 0.974,0.774 2.332,1.14 0.708,0.192 1.133,0.489 1.377,0.97 0.194,0.382 0.704,1.147 1.132,1.701 0.429,0.552 0.997,1.39 1.262,1.86 0.266,0.471 0.996,1.149 1.623,1.508 2.813,1.613 3.532,2.159 3.418,2.605 -0.135,0.523 0.509,0.812 1.459,0.837 l -12.455,17.41 z"
             style="fill:#ffab00;fill-opacity:1;fill-rule:nonzero;stroke:none"
             id="path3037" />
        </g>
        <g
           id="g3039"
           transform="translate(128.0806,305.6519)">
          <path
             d="m 0,0 c 0.089,0.485 0.276,1.579 0.46,2.684 0.219,1.314 0.512,2.87 0.651,3.46 0.14,0.589 0.254,1.409 0.254,1.822 0,0.412 0.101,0.75 0.224,0.75 0.124,0 0.29,0.425 0.368,0.943 0.026,0.17 0.05,0.329 0.072,0.48 L -4.985,0.028 Z"
             style="fill:#ffab00;fill-opacity:1;fill-rule:nonzero;stroke:none"
             id="path3041" />
        </g>
        <g
           id="g3043"
           transform="translate(101.5879,426.5015)">
          <path
             d="M 0,0 59.25,-66.42 88.349,-0.211 Z"
             style="fill:#ff7700;fill-opacity:1;fill-rule:nonzero;stroke:none"
             id="path3045" />
        </g>
        <g
           id="g3047"
           transform="translate(93.3643,231.457)">
          <path
             d="m 0,0 25.193,-1.291 c -0.002,0.068 -0.007,0.137 -0.012,0.208 -0.041,0.519 0.108,1.065 0.389,1.421 0.251,0.319 0.454,0.789 0.45,1.044 -0.005,0.593 0.78,5.62 0.957,6.119 0.074,0.207 0.145,1.216 0.157,2.241 0.013,1.026 0.137,1.903 0.275,1.952 0.837,0.292 0.962,0.532 0.658,1.264 -0.245,0.591 -0.232,0.864 0.065,1.437 0.234,0.448 0.374,1.488 0.384,2.831 0.017,2.316 0.105,2.641 0.661,2.428 0.433,-0.166 0.528,0.789 0.103,1.052 -0.244,0.151 -0.188,1.697 0.126,3.385 0.615,3.313 0.675,3.992 0.403,4.501 -0.42,0.787 -0.08,2.286 0.518,2.286 0.613,0 0.603,0.309 -0.027,0.88 -0.614,0.555 -0.639,1.192 -0.083,2.041 0.35,0.534 0.37,0.776 0.126,1.455 -0.403,1.112 -0.372,1.785 0.181,4.003 0.419,1.674 0.436,2.023 0.137,2.86 -0.457,1.28 -0.45,2.703 0.016,3.089 0.254,0.21 0.377,0.777 0.377,1.734 0,0.913 0.148,1.633 0.414,2.013 0.367,0.524 0.371,0.614 0.031,0.804 -0.497,0.278 -0.399,5.235 0.149,7.565 0.331,1.404 0.661,4.444 0.76,6.986 0.023,0.584 0.168,0.902 0.435,0.954 0.432,0.083 0.726,0.895 1.071,3.159 l -4.183,5.802 z"
             style="fill:#ff9900;fill-opacity:1;fill-rule:nonzero;stroke:none"
             id="path3049" />
        </g>
        <g
           id="g3051"
           transform="translate(114.6724,216.4453)">
          <path
             d="m 0,0 c 0.019,0.096 0.034,0.187 0.047,0.271 0.25,1.752 0.686,2.885 1.111,2.885 0.282,0 0.327,0.243 0.207,1.119 -0.266,1.943 0.848,5.932 1.825,6.538 0.147,0.089 0.1,0.486 -0.121,1.014 -0.429,1.027 -0.44,1.133 -0.11,1.133 0.138,0 0.251,-0.169 0.251,-0.376 0,-0.208 0.105,-0.378 0.235,-0.378 0.303,0 0.48,0.626 0.44,1.515 l -25.193,1.291 z"
             style="fill:#eaa400;fill-opacity:1;fill-rule:nonzero;stroke:none"
             id="path3053" />
        </g>
        <g
           id="g3055"
           transform="translate(99.9009,353.7549)">
          <path
             d="m 0,0 23.194,-48.075 7.015,10.111 c 0.366,2.418 0.383,2.348 1.216,2.348 0.121,0 0.272,0.013 0.438,0.035 L 60.937,6.326 Z"
             style="fill:#ff8800;fill-opacity:1;fill-rule:nonzero;stroke:none"
             id="path3057" />
        </g>
        <g
           id="g3059"
           transform="translate(99.9009,353.7549)">
          <path
             d="M 0,0 60.937,6.326 1.687,72.747 Z"
             style="fill:#ff7400;fill-opacity:1;fill-rule:nonzero;stroke:none"
             id="path3061" />
        </g>
        <g
           id="g3063"
           transform="translate(95.5503,184.9687)">
          <path
             d="m 0,0 c 0.208,0.12 0.379,0.195 0.459,0.195 0.554,0 5.045,4.699 4.886,5.114 -0.252,0.658 1.163,2.915 2.335,3.72 0.593,0.409 1.078,0.851 1.078,0.985 0,0.132 0.386,0.79 0.856,1.46 0.471,0.671 1.095,1.659 1.385,2.196 0.736,1.361 1.065,1.859 1.718,2.598 0.311,0.351 0.566,0.833 0.566,1.069 0,0.464 0.282,1.256 1.016,2.842 0.257,0.554 0.525,1.297 0.598,1.653 0.073,0.355 0.532,1.168 1.019,1.807 0.487,0.638 0.886,1.365 0.886,1.615 0,0.599 0.883,2.906 1.611,4.208 0.277,0.498 0.574,1.349 0.709,2.015 L -2.186,46.488 Z"
             style="fill:#df8100;fill-opacity:1;fill-rule:nonzero;stroke:none"
             id="path3065" />
        </g>
        <g
           id="g3067"
           transform="translate(101.5879,426.5015)">
          <path
             d="m 0,0 -14.833,-22.25 c 0.154,-0.995 0.407,-2.232 0.599,-2.909 0.979,-3.448 1.08,-3.937 0.95,-4.576 -0.094,-0.468 0.029,-0.891 0.392,-1.354 0.292,-0.371 0.53,-0.856 0.529,-1.08 -0.001,-0.479 0.702,-2.704 1.082,-3.421 0.26,-0.492 0.393,-1.86 0.5,-5.154 0.029,-0.899 0.176,-1.86 0.325,-2.137 0.168,-0.308 0.25,-1.812 0.212,-3.896 l -0.062,-3.393 -1.193,-2.389 c -0.655,-1.313 -1.384,-2.524 -1.618,-2.69 -2.483,-1.759 -3.561,-8.853 -1.48,-9.728 l 0.742,-0.312 -0.61,-0.659 c -0.477,-0.515 -1.515,-3.085 -1.828,-4.388 l 14.606,-2.411 z"
             style="fill:#ff6200;fill-opacity:1;fill-rule:nonzero;stroke:none"
             id="path3069" />
        </g>
        <g
           id="g3071"
           transform="translate(100.7441,492.9214)">
          <path
             d="m 0,0 -11.219,-15.117 c -0.019,-0.066 -0.036,-0.124 -0.048,-0.172 -0.111,-0.414 -0.438,-1.422 -0.729,-2.238 -0.29,-0.816 -0.528,-1.721 -0.528,-2.011 -0.001,-0.29 -0.34,-1.035 -0.753,-1.658 -0.414,-0.621 -0.753,-1.456 -0.754,-1.854 0,-0.398 -0.333,-1.303 -0.738,-2.012 -0.427,-0.747 -0.81,-1.87 -0.91,-2.67 -0.094,-0.76 -0.4,-2.06 -0.678,-2.89 -0.278,-0.83 -0.539,-2.192 -0.582,-3.03 -0.043,-0.837 -0.323,-2.138 -0.622,-2.89 -0.399,-1.004 -0.572,-2.075 -0.645,-4.009 -0.111,-2.873 -0.33,-7.354 -0.467,-9.563 -0.048,-0.766 -0.203,-1.841 -0.344,-2.387 -0.142,-0.545 -0.17,-1.469 -0.086,-2.758 L 0.844,-66.42 Z"
             style="fill:#fa3600;fill-opacity:1;fill-rule:nonzero;stroke:none"
             id="path3073" />
        </g>
        <g
           id="g3075"
           transform="translate(99.9009,353.7549)">
          <path
             d="m 0,0 -43.485,-34.488 c 2.221,-0.485 4.231,-0.571 5.145,-0.006 0.141,0.087 0.484,0.036 0.764,-0.114 0.371,-0.199 0.659,-0.19 1.073,0.032 0.589,0.318 1.953,0.666 3.456,0.883 0.484,0.07 1.445,0.332 2.137,0.583 0.692,0.251 1.879,0.66 2.639,0.906 1.851,0.602 4.022,1.604 4.022,1.857 0,0.112 0.424,0.393 0.943,0.626 1.966,0.88 2.976,1.482 3.658,2.181 0.387,0.397 0.808,0.722 0.935,0.722 0.384,0 3.8,3.351 4.036,3.959 0.12,0.312 0.368,0.565 0.55,0.565 0.312,0 1.693,2.4 1.693,2.94 0,0.138 0.219,0.449 0.488,0.692 0.268,0.244 0.555,0.742 0.634,1.108 0.179,0.81 1.894,3.047 1.894,2.468 0,-0.221 -0.16,-0.775 -0.356,-1.229 -0.648,-1.503 -1.403,-4.344 -1.403,-5.279 0,-0.507 -0.098,-0.982 -0.218,-1.055 -0.388,-0.24 -0.857,-3.195 -0.555,-3.497 0.148,-0.148 0.27,-0.589 0.27,-0.98 0,-0.526 0.163,-0.772 0.628,-0.949 0.756,-0.287 0.755,-0.27 0.131,-1.434 -0.356,-0.662 -0.416,-0.98 -0.211,-1.107 0.206,-0.127 0.133,-0.538 -0.256,-1.442 -0.299,-0.694 -0.544,-1.535 -0.544,-1.868 0,-0.334 -0.223,-1.274 -0.496,-2.091 -0.56,-1.673 -0.638,-3.275 -0.23,-4.744 0.207,-0.744 0.2,-1.319 -0.027,-2.265 -0.031,-0.132 -0.058,-0.272 -0.082,-0.423 l 35.961,-4.626 z"
             style="fill:#ff7200;fill-opacity:1;fill-rule:nonzero;stroke:none"
             id="path3077" />
        </g>
        <g
           id="g3079"
           transform="translate(123.0952,305.6797)">
          <path
             d="m 0,0 -35.961,4.626 c -0.146,-0.937 -0.134,-2.308 0.025,-4.989 0.136,-2.28 0.165,-4.258 0.063,-4.397 -0.499,-0.676 -0.787,-2.872 -0.627,-4.788 0.145,-1.747 0.095,-2.211 -0.357,-3.273 -0.946,-2.228 -1.316,-7.834 -0.576,-8.727 0.228,-0.274 0.282,-0.938 0.183,-2.287 -0.135,-1.835 0.184,-3.465 1.152,-5.908 0.157,-0.394 0.136,-1.216 -0.06,-2.388 -0.267,-1.599 -0.24,-2.055 0.258,-4.339 0.465,-2.133 0.509,-2.722 0.273,-3.603 -0.193,-0.717 -0.225,-2.306 -0.1,-4.99 0.249,-5.34 0.25,-6.101 0.014,-16.757 -0.005,-0.201 -0.009,-0.398 -0.013,-0.591 l 5.995,-11.812 z"
             style="fill:#ff7400;fill-opacity:1;fill-rule:nonzero;stroke:none"
             id="path3081" />
        </g>
        <g
           id="g3083"
           transform="translate(87.3691,243.2686)">
          <path
             d="m 0,0 c -0.217,-9.885 -0.209,-10.653 0.067,-11.401 0.118,-0.318 0.052,-1.171 -0.159,-2.068 -0.002,-0.01 -0.006,-0.021 -0.008,-0.032 l 6.095,1.689 z"
             style="fill:#fc6200;fill-opacity:1;fill-rule:nonzero;stroke:none"
             id="path3085" />
        </g>
        <g
           id="g3087"
           transform="translate(87.2695,229.7676)">
          <path
             d="m 0,0 c -0.196,-0.848 -0.401,-2.412 -0.457,-3.505 -0.094,-1.793 -0.341,-3.305 -1.121,-6.852 -0.13,-0.59 -0.236,-1.735 -0.236,-2.545 0,-0.811 -0.175,-1.969 -0.39,-2.574 -0.214,-0.604 -0.675,-2.282 -1.025,-3.728 -0.349,-1.446 -0.736,-2.821 -0.862,-3.055 -0.125,-0.235 -0.274,-0.917 -0.332,-1.518 -0.44,-4.639 -2.639,-8.769 -6.062,-11.391 l -1.857,-1.421 -2.404,0.106 12.882,-15.612 c 0.427,0.294 0.764,0.635 0.953,1.001 0.224,0.433 0.571,0.709 0.889,0.709 0.604,0 2.873,1.088 3.613,1.732 0.276,0.241 0.811,0.629 1.188,0.864 0.378,0.233 0.862,0.765 1.075,1.178 0.214,0.412 0.517,0.752 0.673,0.752 0.156,0 0.655,0.282 1.108,0.628 0.22,0.167 0.45,0.319 0.646,0.432 L 6.095,1.689 Z"
             style="fill:#e56700;fill-opacity:1;fill-rule:nonzero;stroke:none"
             id="path3089" />
        </g>
        <g
           id="g3091"
           transform="translate(85.2949,356.165)">
          <path
             d="m 0,0 c -0.058,-0.241 -0.091,-0.439 -0.091,-0.573 0,-0.207 -1.019,-1.641 -2.263,-3.186 -1.243,-1.546 -2.261,-2.917 -2.261,-3.048 0,-0.365 -1.276,-2.563 -1.488,-2.563 -0.103,0 -0.347,-0.311 -0.543,-0.691 -1.128,-2.181 -6.96,-7.609 -9.699,-9.027 -0.715,-0.37 -1.413,-0.921 -1.551,-1.227 -0.185,-0.404 -0.56,-0.601 -1.384,-0.725 -0.621,-0.092 -1.258,-0.322 -1.413,-0.509 -0.155,-0.187 -0.57,-0.412 -0.923,-0.501 -0.395,-0.099 -0.591,-0.289 -0.512,-0.496 0.131,-0.342 -0.778,-0.896 -1.717,-1.048 -1.121,-0.18 -2.805,-0.931 -3.436,-1.532 -0.369,-0.351 -0.776,-0.573 -0.903,-0.494 -0.128,0.079 -0.618,0.049 -1.089,-0.066 -0.471,-0.115 -1.648,-0.346 -2.616,-0.514 -0.07,-0.012 -0.144,-0.028 -0.217,-0.042 l -1.353,-9.172 c 1.437,-0.631 3.057,-1.151 4.58,-1.484 L 14.606,-2.41 Z"
             style="fill:#ff6800;fill-opacity:1;fill-rule:nonzero;stroke:none"
             id="path3093" />
        </g>
        <g
           id="g3095"
           transform="translate(97.3716,494.0991)">
          <path
             d="m 0,0 c -0.22,-0.343 -0.539,-0.779 -0.87,-1.18 -0.545,-0.66 -0.991,-1.328 -0.991,-1.484 0,-0.157 -0.339,-0.712 -0.755,-1.234 -0.414,-0.521 -0.753,-1.057 -0.753,-1.188 0,-0.133 -0.227,-0.528 -0.503,-0.879 -0.276,-0.352 -0.503,-0.805 -0.503,-1.009 0,-0.203 -0.346,-0.883 -0.769,-1.509 -0.423,-0.627 -0.876,-1.722 -1.008,-2.433 -0.132,-0.711 -0.533,-2.081 -0.891,-3.045 -0.317,-0.852 -0.653,-1.833 -0.804,-2.334 L 3.372,-1.178 Z"
             style="fill:#ee2300;fill-opacity:1;fill-rule:nonzero;stroke:none"
             id="path3097" />
        </g>
        <g
           id="g3099"
           transform="translate(81.6411,437.6621)">
          <path
             d="m 0,0 c 0.018,-0.275 0.04,-0.567 0.068,-0.876 0.131,-1.452 0.3,-3.658 0.375,-4.902 0.075,-1.245 0.244,-2.547 0.376,-2.894 0.133,-0.348 0.342,-1.196 0.464,-1.886 0.471,-2.65 1.29,-6.479 1.438,-6.718 0.438,-0.709 1.25,-5.357 1.46,-8.361 0.117,-1.675 0.294,-3.161 0.879,-7.415 0.016,-0.115 0.034,-0.235 0.053,-0.359 l 14.834,22.25 z"
             style="fill:#ff4d00;fill-opacity:1;fill-rule:nonzero;stroke:none"
             id="path3101" />
        </g>
        <g
           id="g3103"
           transform="translate(71.96,193.3086)">
          <path
             d="m 0,0 c -1.633,0.074 -3.421,0.257 -3.975,0.408 -1.921,0.526 -4.278,1.298 -5.114,1.674 -1.324,0.594 -3.165,-0.035 -6.013,-2.059 -2.433,-1.728 -2.532,-5.402 -0.146,-5.402 0.748,0 1.093,-0.107 1.093,-0.339 0,-0.185 0.207,-0.525 0.461,-0.754 0.498,-0.451 0.549,-1.18 0.121,-1.714 -0.267,-0.334 -0.394,-0.708 -0.69,-2.036 -0.126,-0.569 -0.257,-0.67 -0.721,-0.551 -1.752,0.439 -2.138,-2.186 -0.543,-3.704 0.481,-0.458 1.417,-1.368 2.081,-2.025 1.271,-1.259 2.067,-1.49 2.808,-0.819 0.597,0.54 3.78,0.714 4.697,0.256 0.476,-0.238 1.002,-0.293 1.59,-0.17 0.484,0.102 1.841,0.14 3.016,0.087 2.895,-0.133 2.964,-0.133 6.494,0.046 1.705,0.085 3.231,0.237 3.39,0.334 0.159,0.1 0.63,0.151 1.047,0.114 1.333,-0.114 2.846,0.324 3.85,1.018 L 0.564,-0.024 Z"
             style="fill:#d45200;fill-opacity:1;fill-rule:nonzero;stroke:none"
             id="path3105" />
        </g>
        <g
           id="g3107"
           transform="translate(47.499,327.9453)">
          <path
             d="M 0,0 C -0.346,-0.233 -0.827,-0.495 -1.068,-0.583 -2.121,-0.962 -1.343,-2.792 0.806,-4.991 1.58,-5.784 2.861,-6.546 4.337,-7.194 L 5.689,1.978 C 3.751,1.606 0.944,0.637 0,0"
             style="fill:#ff5e00;fill-opacity:1;fill-rule:nonzero;stroke:none"
             id="path3109" />
        </g>
      </g>
    </g>
  </g>
</svg>
